<svg xmlns="http://www.w3.org/2000/svg" viewBox="0 0 682 682" preserveAspectRatio="xMidYMid meet">
  <g transform="translate(0,682) scale(0.1,-0.1)" fill="#000" stroke="none">
    <path d="M1085 6803 c-275 -59 -486 -173 -685 -373 -200 -200 -305 -391 -376
-690 -17 -71 -18 -182 -21 -1869 l-3 -1795 28 40 c98 134 325 242 682 324 25
6 110 19 190 30 80 11 154 23 165 27 47 14 341 290 635 596 202 209 281 297
267 297 -2 0 -112 -114 -245 -254 -133 -140 -256 -264 -274 -277 -27 -19 -25
-15 12 22 25 24 166 172 314 329 148 157 300 317 336 355 336 352 660 718 660
744 0 5 5 13 12 17 8 5 9 2 4 -12 -5 -14 1 -11 23 10 34 33 40 49 14 39 -11
-4 -14 -3 -9 5 4 7 13 12 21 12 8 0 38 28 67 62 29 34 71 82 94 107 22 25 44
55 48 65 3 10 9 16 13 13 3 -4 19 8 35 26 63 71 215 264 228 291 8 16 33 49
55 74 22 25 54 66 71 91 17 25 36 45 42 44 6 -2 18 9 26 25 9 15 37 50 63 78
26 28 55 63 63 79 8 15 61 79 117 142 104 116 199 199 241 210 32 8 104 -22
160 -67 101 -79 131 -140 112 -226 -10 -45 -161 -348 -201 -406 -23 -32 -25
-45 -4 -28 13 11 14 10 9 -4 -3 -9 -12 -15 -19 -14 -12 3 -141 -181 -193 -275
-16 -30 -40 -65 -53 -79 -49 -52 -77 -100 -47 -82 7 4 8 3 4 -5 -4 -6 -11 -9
-16 -6 -12 7 -60 -53 -60 -74 0 -25 -38 -71 -59 -71 -19 0 -71 -49 -71 -68 0
-7 -5 -11 -11 -9 -6 1 -14 -4 -16 -11 -3 -7 1 -11 7 -10 7 2 15 -4 17 -12 3
-9 1 -11 -4 -5 -15 19 -42 10 -84 -28 -23 -20 -45 -37 -49 -37 -4 0 -27 -17
-51 -39 -93 -81 -159 -91 -260 -41 -33 17 -68 28 -78 25 -17 -5 -175 -163
-253 -251 -20 -23 -43 -46 -51 -50 -8 -5 -56 -56 -107 -114 -51 -58 -147 -161
-213 -230 -65 -69 -171 -181 -235 -249 -65 -68 -182 -191 -262 -271 -223 -226
-323 -330 -319 -330 2 0 33 9 69 20 76 23 73 23 65 10 -10 -16 10 -11 36 8 13
10 121 51 239 91 118 40 225 78 237 83 11 6 26 8 31 4 6 -3 17 0 25 9 8 8 72
37 142 65 70 27 146 60 169 72 22 13 42 23 42 23 1 0 5 11 9 24 6 18 4 22 -6
16 -8 -5 -1 4 15 19 20 19 25 30 17 35 -8 5 -6 13 9 26 11 10 18 21 15 25 -2
4 7 17 20 30 22 21 26 48 4 35 -5 -4 -9 -1 -9 4 0 6 6 11 14 11 8 0 25 14 37
32 13 18 49 59 81 93 32 33 58 65 58 72 0 6 9 14 19 18 28 9 103 93 95 107 -4
6 -3 8 4 4 6 -3 35 13 65 38 246 200 369 221 506 87 46 -46 63 -72 75 -112 21
-68 21 -65 -14 -150 -26 -64 -43 -87 -132 -176 -57 -57 -108 -103 -114 -103
-6 0 -19 -9 -29 -20 -10 -11 -24 -20 -30 -20 -7 0 -19 -8 -26 -17 -13 -16 -12
-17 4 -4 9 8 20 11 24 8 3 -4 -9 -14 -27 -24 -18 -10 -48 -31 -66 -46 -18 -15
-36 -27 -41 -25 -4 1 -30 -8 -57 -20 -35 -16 -47 -26 -42 -37 3 -9 2 -14 -3
-11 -4 3 -54 -18 -110 -46 -105 -53 -106 -55 -101 -118 2 -33 35 -67 78 -81
52 -17 201 -5 312 26 173 49 460 176 604 269 l59 37 -6 109 c-6 100 -5 109 11
104 10 -4 13 -3 6 3 -16 12 -7 256 16 393 5 30 12 73 15 94 3 22 7 41 8 43 9
8 62 -16 62 -28 1 -33 23 -44 53 -25 18 11 44 -13 37 -35 -9 -26 3 -59 20 -59
9 0 12 -6 9 -15 -4 -8 -2 -15 2 -15 5 0 8 -92 6 -205 -2 -123 1 -205 7 -205
20 0 364 246 437 313 31 28 58 45 66 42 8 -3 21 1 28 9 14 18 34 11 24 -7 -4
-7 4 -2 18 11 30 27 42 28 35 2 -7 -26 7 -21 51 19 24 22 38 29 40 21 3 -7 -9
-25 -27 -39 -17 -14 -31 -32 -31 -39 0 -7 -21 -35 -46 -62 -26 -28 -43 -50
-39 -50 4 0 18 11 31 25 22 24 54 34 54 17 0 -4 -12 -15 -27 -24 -28 -17 -120
-108 -94 -93 87 50 -305 -290 -462 -400 -17 -12 -16 -16 8 -92 38 -121 91
-186 153 -186 38 0 153 59 206 104 23 20 84 71 135 113 52 42 103 89 115 105
12 16 75 91 141 168 66 76 177 210 245 297 69 88 151 187 183 220 32 34 65 72
73 86 9 14 30 34 47 43 l30 18 84 -83 c46 -45 83 -85 83 -89 0 -7 -124 -209
-139 -226 -6 -7 -11 -15 -11 -18 0 -8 -50 -85 -77 -118 -13 -16 -21 -32 -18
-37 3 -4 -2 -13 -10 -20 -8 -7 -13 -16 -10 -20 6 -10 -40 -81 -48 -74 -3 3 -4
-1 -4 -8 2 -22 -34 -98 -47 -98 -6 0 -20 -24 -30 -52 -16 -46 -55 -99 -72 -97
-3 0 -9 -3 -12 -7 -4 -4 -1 -4 6 0 6 4 12 4 12 1 0 -15 -42 -86 -62 -105 -12
-11 -19 -22 -16 -26 4 -3 -5 -30 -18 -59 -14 -30 -26 -69 -28 -88 -2 -18 -10
-49 -19 -67 -20 -39 -22 -86 -4 -93 8 -4 8 -6 0 -6 -6 -1 -9 -10 -6 -23 3 -17
2 -19 -5 -9 -8 11 -12 10 -22 -8 -9 -18 -8 -27 4 -46 15 -23 13 -55 -4 -55 -4
0 -24 11 -44 25 -20 14 -39 25 -41 25 -11 0 -4 -35 11 -51 15 -17 12 -39 -5
-39 -11 0 -83 106 -106 155 -19 42 -27 88 -29 176 l-1 57 -30 -21 c-16 -12
-63 -45 -102 -73 -69 -49 -124 -74 -201 -89 -58 -12 -246 -13 -260 -2 -10 8
-16 7 -22 -2 -8 -14 -50 -6 -50 10 0 5 -9 9 -20 9 -12 0 -32 7 -46 17 -40 26
-134 178 -134 216 0 29 -22 36 -44 15 -11 -11 -46 -32 -76 -48 -30 -15 -68
-35 -85 -43 -16 -9 -39 -14 -50 -11 -14 4 -16 3 -7 -4 10 -7 3 -15 -30 -31
-24 -11 -52 -21 -61 -21 -10 0 -25 -4 -35 -9 -9 -5 -32 -15 -49 -21 -18 -7
-33 -17 -33 -22 0 -5 -4 -7 -9 -3 -13 7 -62 -16 -55 -26 7 -11 -24 -26 -73
-34 -24 -4 -45 -10 -48 -15 -3 -4 -22 -11 -42 -16 -45 -9 -41 -8 -77 -23 -16
-6 -38 -8 -50 -5 -28 10 -100 5 -104 -7 -3 -6 -9 -6 -17 1 -7 6 -52 15 -100
21 -48 5 -105 13 -127 18 -82 19 -238 134 -238 175 0 13 -3 26 -7 30 -5 4 -8
11 -9 14 -8 47 -19 71 -35 75 -11 3 -17 1 -14 -3 7 -11 -31 -23 -44 -15 -6 3
-8 -3 -6 -14 2 -13 -1 -18 -10 -15 -7 3 -16 0 -20 -5 -3 -6 -10 -9 -15 -6 -5
3 -33 -6 -62 -20 -29 -13 -64 -26 -78 -27 -14 -2 -28 -7 -31 -11 -3 -5 -26
-11 -50 -14 -24 -3 -57 -13 -74 -23 -16 -10 -55 -24 -85 -31 -30 -7 -58 -17
-61 -22 -3 -5 -9 -8 -13 -8 -25 3 -36 -1 -36 -15 0 -8 -5 -12 -10 -9 -12 7
-156 -25 -270 -61 -82 -26 -277 -74 -383 -95 -66 -12 -70 -15 -145 -91 -69
-71 -193 -172 -210 -173 -4 -1 -27 -13 -51 -29 -227 -146 -528 -233 -679 -196
-101 24 -206 113 -232 196 -6 18 -8 -140 -6 -411 3 -374 6 -451 20 -515 64
-276 171 -480 350 -667 182 -191 382 -309 637 -378 l94 -25 2305 0 2305 0 92
25 c259 69 455 185 639 378 182 190 291 402 351 677 17 81 18 194 18 2325 0
2131 -1 2244 -18 2325 -63 292 -173 497 -377 700 -163 163 -326 266 -525 329
-203 66 -18 61 -2492 60 -1955 -1 -2257 -3 -2318 -16z m2845 -2064 c-7 -11
-14 -18 -17 -15 -3 3 0 12 7 21 18 21 23 19 10 -6z m2080 -429 c4 0 10 6 13
13 3 9 9 9 23 1 24 -14 60 1 67 27 3 11 10 19 16 19 6 0 8 -7 4 -16 -4 -10 1
-22 12 -30 14 -11 16 -21 10 -51 -4 -21 -6 -48 -6 -59 1 -32 -152 -205 -216
-245 -40 -25 -80 -19 -123 17 -48 41 -48 77 -1 189 22 54 38 102 34 108 -3 5
-1 7 4 4 9 -6 24 14 27 35 1 3 5 10 10 15 5 5 6 3 2 -4 -4 -7 -3 -13 2 -13 5
0 12 10 16 23 5 18 8 20 16 7 7 -12 10 -12 10 -1 0 8 6 11 15 7 9 -3 23 3 33
15 17 19 17 19 20 -21 2 -22 7 -40 12 -40z m183 24 c-6 -15 -13 -17 -37 -8
-25 10 -19 21 13 22 22 0 28 -3 24 -14z m233 -565 c8 -6 29 -19 46 -28 80 -40
116 -150 84 -249 -22 -65 -107 -200 -195 -311 -65 -81 -116 -133 -414 -419
-64 -62 -117 -119 -117 -125 0 -22 54 -18 119 8 34 14 67 22 73 19 6 -4 8 -3
4 4 -5 9 47 29 66 24 11 -2 159 70 221 108 32 19 135 86 229 148 95 61 174
112 176 112 2 0 0 -5 -3 -11 -8 -13 37 12 47 26 4 5 11 6 15 1 4 -4 -12 -25
-37 -47 -25 -21 -36 -36 -26 -32 13 4 17 3 12 -5 -4 -7 -14 -12 -23 -12 -19 0
-53 -28 -53 -43 0 -6 9 -2 20 8 11 10 22 16 25 13 3 -3 -22 -30 -55 -60 -33
-31 -60 -61 -60 -68 0 -6 3 -10 8 -8 36 17 82 49 115 81 22 20 44 37 51 37 12
0 -60 -72 -109 -107 -16 -12 -25 -23 -18 -23 6 0 42 25 78 56 36 31 68 54 71
51 2 -2 -7 -12 -20 -21 -17 -11 -23 -22 -20 -34 5 -14 4 -14 -5 -2 -8 12 -11
12 -17 -5 -7 -18 -43 -54 -104 -104 -19 -16 -20 -19 -6 -14 14 4 17 3 12 -6
-4 -6 -16 -9 -27 -6 -14 5 -21 0 -28 -17 -17 -44 -172 -154 -316 -223 -345
-166 -541 -135 -622 99 -14 39 -18 82 -18 186 1 154 11 199 75 318 22 41 39
77 37 79 -5 4 -42 -38 -64 -73 -10 -15 -10 -13 -1 11 7 17 27 51 44 76 18 25
42 65 53 88 12 22 26 41 31 41 6 0 10 7 10 15 0 8 5 15 10 15 6 0 13 8 17 18
7 18 23 37 123 145 35 37 68 67 74 67 6 0 17 9 24 20 7 11 17 20 22 20 12 0
99 65 122 92 9 11 41 32 70 47 58 30 149 41 174 20z m-2223 -124 c-3 -9 -8
-14 -10 -11 -3 3 -2 9 2 15 9 16 15 13 8 -4z m571 -60 c-21 -24 -44 -47 -51
-49 -8 -3 5 17 29 44 24 28 47 50 51 50 4 0 -9 -20 -29 -45z m166 35 c0 -5 -5
-10 -11 -10 -5 0 -7 5 -4 10 3 6 8 10 11 10 2 0 4 -4 4 -10z m-30 -110 c0 -5
-4 -10 -10 -10 -5 0 -10 5 -10 10 0 6 5 10 10 10 6 0 10 -4 10 -10z m1890
-554 c0 -3 -4 -8 -10 -11 -5 -3 -10 -1 -10 4 0 6 5 11 10 11 6 0 10 -2 10 -4z
m-90 -146 c0 -5 -5 -10 -11 -10 -5 0 -7 5 -4 10 3 6 8 10 11 10 2 0 4 -4 4
-10z m-3076 -325 c-10 -8 -23 -14 -29 -14 -5 0 -1 6 9 14 11 8 24 15 30 15 5
0 1 -7 -10 -15z"/>
    <path d="M6609 2963 c-13 -16 -12 -17 4 -4 9 7 17 15 17 17 0 8 -8 3 -21 -13z"/>
    <path d="M6550 2840 c-9 -6 -10 -10 -3 -10 6 0 15 5 18 10 8 12 4 12 -15 0z"/>
    <path d="M3460 5119 c0 -5 5 -7 10 -4 6 3 10 8 10 11 0 2 -4 4 -10 4 -5 0 -10 -5 -10 -11z"/>
    <path d="M3645 4390 c-3 -5 -1 -10 4 -10 6 0 11 5 11 10 0 6 -2 10 -4 10 -3 0 -8 -4 -11 -10z"/>
    <path d="M2202 3641 c-62 -66 -112 -122 -112 -126 0 -7 136 134 199 208 68 77 20 33 -87 -82z"/>
    <path d="M4799 3493 c-1 -5 -1 -11 0 -15 0 -5 -4 -7 -10 -5 -14 3 -36 -30 -26 -39 8 -8 67 44 67 58 0 10 -30 11 -31 1z"/>
    <path d="M3365 3460 c-11 -4 -30 -10 -42 -15 -13 -4 -23 -12 -23 -17 0 -5 -9 -6 -20 -3 -13 4 -20 2 -20 -7 0 -8 -15 -25 -32 -38 -18 -13 -39 -32 -46 -42 -7 -10 -18 -18 -24 -18 -6 0 -29 -19 -50 -42 -38 -41 -64 -78 -54 -78 8 0 170 102 233 146 34 25 74 60 88 78 35 46 33 53 -10 36z"/>
    <path d="M4665 3380 c-16 -17 -16 -20 -3 -15 9 4 19 13 22 21 7 19 2 18 -19 -6z"/>
    <path d="M3610 3365 c-7 -9 -11 -18 -8 -20 3 -3 11 1 18 10 7 9 11 18 8 20 -3 3 -11 -1 -18 -10z"/>
    <path d="M4704 3348 l-19 -23 23 19 c21 18 27 26 19 26 -2 0 -12 -10 -23 -22z"/>
    <path d="M3640 2820 c-8 -5 -10 -10 -5 -10 6 0 17 5 25 10 8 5 11 10 5 10 -5 0 -17 -5 -25 -10z"/>
    <path d="M3816 2624 c-11 -8 -16 -14 -10 -14 13 0 39 18 34 24 -3 2 -14 -2 -24 -10z"/>
    <path d="M3740 2570 c-8 -5 -10 -10 -5 -10 6 0 17 5 25 10 8 5 11 10 5 10 -5 0 -17 -5 -25 -10z"/>
  </g>
</svg>
