<?xml version="1.0" standalone="no"?>
<!DOCTYPE svg PUBLIC "-//W3C//DTD SVG 20010904//EN"
 "http://www.w3.org/TR/2001/REC-SVG-20010904/DTD/svg10.dtd">
<svg version="1.0" xmlns="http://www.w3.org/2000/svg"
 width="3508.000000pt" height="1181.000000pt" viewBox="0 0 3508.000000 1181.000000"
 preserveAspectRatio="xMidYMid meet">

<g transform="translate(0.000000,1181.000000) scale(0.100000,-0.100000)"
fill="currentColor" stroke="none">
<path d="M9195 9983 c-26 -7 -94 -54 -120 -83 -11 -12 -37 -31 -57 -41 -52
-27 -94 -66 -74 -71 10 -2 -18 -38 -85 -108 l-101 -105 92 103 c51 56 88 102
83 102 -6 0 -48 -42 -94 -92 -290 -317 -399 -448 -373 -448 13 0 14 -3 4 -15
-7 -8 -16 -13 -20 -10 -12 7 -53 -42 -45 -55 4 -7 -2 -14 -14 -17 -12 -3 -21
-8 -21 -12 0 -4 -25 -34 -55 -66 -30 -32 -52 -61 -50 -64 3 -2 -15 -27 -39
-55 -24 -28 -50 -64 -59 -81 -8 -16 -32 -48 -52 -70 l-36 -40 24 40 c29 49 42
85 29 85 -12 0 -33 -25 -27 -32 13 -13 -41 -88 -132 -187 -35 -37 -63 -73 -63
-79 0 -7 -4 -12 -9 -12 -8 0 -81 -104 -81 -116 0 -4 8 0 17 7 13 11 13 8 -2
-12 -11 -15 -23 -25 -26 -24 -3 2 -14 -10 -24 -28 -17 -30 -142 -186 -230
-288 -22 -26 -57 -68 -78 -95 -21 -27 -75 -87 -121 -134 -102 -106 -224 -244
-256 -290 -13 -19 -30 -39 -37 -43 -7 -4 -13 -12 -13 -18 0 -5 -12 -21 -27
-35 -16 -14 -21 -22 -13 -18 10 5 9 0 -4 -14 -10 -12 -22 -19 -26 -17 -5 3
-27 -16 -49 -42 -23 -25 -37 -49 -32 -52 11 -7 -110 -137 -136 -145 -10 -4
-31 -24 -47 -46 -16 -21 -33 -38 -38 -37 -6 1 -15 -7 -21 -18 -29 -49 -140
-185 -147 -180 -5 3 -12 0 -16 -6 -5 -8 -2 -10 7 -5 8 4 6 1 -3 -7 -10 -8 -18
-18 -18 -22 0 -4 -60 -73 -132 -153 -73 -80 -153 -168 -176 -196 -24 -28 -83
-92 -130 -141 -116 -122 -343 -363 -422 -450 -35 -38 -73 -79 -85 -90 -11 -11
-36 -42 -55 -68 -19 -27 -44 -54 -56 -60 -12 -7 -95 -91 -184 -187 -90 -96
-357 -379 -594 -629 -237 -249 -449 -474 -470 -498 -21 -25 -56 -55 -77 -69
-21 -13 -44 -34 -50 -46 -9 -17 -1 -13 29 14 23 21 46 38 51 38 6 0 130 126
277 280 146 153 271 278 278 277 6 -1 10 3 9 10 -4 20 457 502 474 496 11 -4
-9 -30 -70 -92 -47 -47 -86 -91 -88 -98 -6 -20 -538 -569 -871 -898 -296 -294
-687 -655 -753 -696 -47 -30 -83 -37 -340 -69 -132 -17 -255 -36 -273 -41 -19
-6 -48 -12 -65 -14 -41 -4 -290 -59 -382 -84 -138 -39 -482 -163 -570 -207
-279 -137 -448 -271 -515 -410 -38 -76 -19 -203 44 -303 90 -142 273 -261 451
-292 84 -14 277 -7 389 15 43 9 129 34 190 57 61 22 120 41 132 42 11 1 29 10
39 20 10 10 21 14 24 9 3 -6 28 -1 59 11 31 11 48 23 42 27 -8 5 -4 9 9 13 12
3 19 1 15 -4 -7 -12 0 -11 31 3 14 6 25 15 25 20 0 5 6 8 13 6 22 -4 57 13 57
28 0 8 5 14 11 14 5 0 7 -5 3 -11 -4 -7 17 2 47 19 30 17 77 42 104 56 28 14
63 34 79 45 17 11 33 18 38 15 4 -3 5 2 2 10 -4 12 0 14 19 10 14 -2 29 1 33
7 4 8 3 9 -4 5 -7 -4 -12 -3 -12 2 0 10 82 68 89 63 2 -2 8 3 13 11 8 10 9 10
5 -2 -2 -8 -10 -15 -17 -15 -7 0 -15 -6 -17 -13 -6 -17 -1 -15 35 11 17 13 28
28 24 32 -4 5 -2 5 4 2 6 -4 32 9 58 29 48 37 57 48 29 37 -11 -4 -14 -3 -9 6
5 7 15 10 23 7 9 -4 34 9 62 31 66 54 181 168 181 180 0 11 49 59 57 55 2 -2
8 0 11 4 4 4 0 3 -8 -1 -13 -8 -13 -7 -1 8 8 10 16 15 19 12 3 -3 29 17 56 44
41 39 60 50 96 55 158 23 632 138 835 203 77 24 163 47 190 50 28 3 55 10 62
15 7 5 24 11 39 13 14 1 29 8 33 14 4 6 15 9 24 6 8 -4 50 3 93 15 46 12 90
18 108 15 21 -4 27 -3 17 3 -10 7 -10 11 -1 17 6 4 9 13 6 20 -2 7 2 16 10 19
9 3 12 2 9 -5 -5 -7 6 -8 32 -3 49 9 58 14 42 26 -9 6 -3 7 18 3 22 -4 67 6
157 35 69 23 128 45 131 49 2 5 -12 3 -33 -5 -37 -13 -70 -18 -61 -9 3 2 61
22 129 43 69 22 134 43 145 47 12 5 17 4 12 -1 -5 -5 -29 -17 -55 -26 -62 -24
-7 -14 73 12 33 11 47 17 30 14 -28 -5 -29 -4 -14 11 13 13 22 15 34 7 30 -16
158 25 152 50 -1 6 5 13 13 15 13 4 13 3 0 -6 -29 -21 13 -12 65 14 40 19 44
23 20 20 -30 -5 -30 -5 5 11 26 12 39 13 52 5 21 -13 48 -15 48 -3 0 5 15 16
33 25 l32 17 -30 -5 c-30 -5 -30 -5 -5 6 31 15 28 14 73 23 20 5 40 12 43 17
8 14 81 11 87 -4 3 -7 3 -26 0 -42 -4 -20 -3 -26 6 -21 9 6 10 0 5 -20 -5 -20
-4 -25 6 -19 9 5 10 2 6 -12 -8 -25 3 -55 16 -47 5 3 9 0 7 -7 -6 -51 4 -81
42 -126 23 -26 53 -53 68 -60 14 -7 22 -12 16 -13 -12 0 16 -20 29 -20 5 0 2
8 -5 18 -7 9 -1 6 13 -7 15 -13 25 -28 22 -32 -3 -5 -1 -9 3 -9 5 0 18 -7 28
-15 49 -38 133 -86 167 -96 21 -5 42 -17 48 -27 7 -10 13 -13 16 -6 3 8 28 6
82 -7 79 -19 429 -52 445 -42 5 3 13 0 17 -7 5 -8 17 -9 41 -3 19 5 59 7 89 5
148 -8 158 -7 179 12 14 13 28 17 48 12 20 -5 24 -4 13 3 -17 12 -9 16 55 26
43 6 118 29 177 52 20 9 49 16 66 18 16 1 52 14 81 29 29 14 56 24 61 21 4 -3
14 3 21 12 12 14 11 15 -11 8 -14 -4 -49 -18 -79 -31 -63 -28 -96 -33 -65 -9
10 8 29 15 42 15 12 0 22 4 22 8 0 11 46 32 70 32 11 0 20 4 20 8 0 5 11 14
24 20 19 8 25 8 30 -3 3 -8 1 -16 -5 -19 -5 -2 -4 -3 3 -2 7 2 12 10 10 19 -3
18 33 41 48 32 6 -4 13 1 16 9 3 9 22 18 42 22 21 4 44 12 52 19 34 28 61 37
76 24 10 -8 14 -8 14 0 0 6 3 10 8 9 16 -4 52 14 46 24 -4 7 -2 8 4 4 6 -4 30
3 52 14 22 11 46 18 52 14 6 -4 8 -3 5 3 -8 13 68 47 84 38 8 -6 10 -4 4 5 -6
10 -4 12 9 7 9 -4 15 -3 12 2 -8 12 38 41 66 41 16 0 19 3 10 8 -16 11 31 34
53 26 8 -4 17 1 21 9 3 9 12 13 21 10 11 -4 14 -2 9 5 -6 11 6 17 27 13 4 -1
10 6 13 14 4 8 14 15 24 15 10 0 23 7 30 15 7 8 30 25 51 37 40 22 62 51 31
42 -14 -5 -15 -4 -2 5 21 15 30 14 30 -4 0 -8 9 -23 20 -32 11 -10 15 -20 10
-23 -7 -4 -6 -18 3 -38 7 -18 17 -29 21 -25 4 4 4 1 1 -8 -8 -20 73 -175 139
-269 56 -78 133 -140 174 -140 13 0 20 4 17 10 -3 6 -1 10 4 10 6 0 11 -4 11
-9 0 -6 14 -11 32 -13 17 -2 34 -10 36 -18 5 -13 3 -13 -12 -1 -12 11 -20 11
-28 3 -8 -8 -6 -13 8 -17 10 -4 29 -11 42 -16 38 -15 54 -11 47 10 -8 26 10
35 29 15 9 -8 20 -12 26 -9 5 3 10 0 10 -8 0 -10 7 -13 20 -10 11 3 20 0 20
-6 0 -6 11 -10 24 -9 14 1 23 5 20 9 -7 12 20 17 38 8 10 -5 28 -5 43 1 34 13
81 13 106 0 14 -8 51 -6 131 5 266 37 338 67 573 240 61 44 132 96 159 114
l48 33 -6 -39 c-7 -40 -9 -166 -3 -193 1 -8 8 -24 14 -34 7 -12 8 -29 3 -42
-9 -24 33 -160 64 -206 10 -15 15 -32 11 -38 -3 -5 1 -10 9 -10 9 0 16 -6 16
-14 0 -8 6 -21 13 -28 6 -7 21 -30 32 -50 11 -21 23 -38 27 -38 4 0 20 -19 34
-43 29 -45 45 -60 54 -48 3 4 13 10 23 14 24 9 22 19 -16 58 -36 37 -59 106
-32 95 8 -3 15 -1 15 4 0 14 27 12 36 -2 4 -7 3 -8 -4 -4 -18 11 -14 -2 7 -23
12 -12 28 -17 39 -14 14 3 21 -2 26 -19 5 -15 9 -19 13 -9 4 10 12 5 30 -15
14 -17 22 -22 19 -12 -3 11 0 17 7 15 7 -1 12 5 12 13 0 8 -7 14 -17 12 -19
-3 -33 14 -18 23 5 3 10 2 10 -2 0 -5 9 -9 20 -9 25 0 25 1 -5 40 -28 36 -47
105 -26 91 9 -5 12 -1 10 11 -1 11 3 30 9 44 6 14 11 20 11 14 1 -6 8 -11 16
-11 11 0 13 6 9 21 -20 62 2 213 32 219 5 1 8 12 6 25 -2 13 4 25 13 28 16 7
21 30 6 36 -5 1 2 44 16 93 14 50 26 98 26 107 1 9 5 16 10 15 11 -3 59 114
53 130 -6 15 42 128 50 120 4 -3 -1 -20 -9 -36 -22 -44 -2 -39 26 7 30 46 101
186 117 229 7 18 19 38 28 45 14 12 14 10 3 -11 -11 -19 -11 -23 0 -19 15 5
52 71 69 124 10 30 10 38 -1 45 -13 8 -11 10 20 13 8 0 16 7 19 15 3 9 0 11
-8 6 -8 -5 -11 -3 -8 6 2 8 16 15 29 17 22 3 40 27 47 65 1 4 8 15 17 23 8 9
15 22 15 30 0 8 11 27 24 41 l24 26 -21 18 c-19 15 -19 18 -5 19 9 0 20 -5 23
-10 9 -15 25 -2 19 15 -4 8 10 33 30 56 20 24 34 45 31 47 -3 3 0 11 7 19 6 7
8 17 4 20 -4 4 -11 1 -16 -7 -5 -8 -13 -11 -17 -6 -4 4 3 16 17 25 44 29 63
52 52 63 -13 13 12 68 29 68 6 0 8 4 5 9 -4 5 7 21 24 34 16 14 30 32 30 40 0
7 11 24 24 37 14 12 28 35 31 51 4 16 14 35 24 41 10 7 21 25 25 41 3 15 13
27 21 27 8 0 18 12 21 26 4 15 46 88 94 163 48 75 103 165 123 201 l36 66 -49
59 c-56 69 -273 275 -289 275 -26 0 -124 -78 -147 -118 -14 -24 -83 -102 -152
-175 -70 -73 -178 -198 -240 -279 -235 -309 -495 -625 -736 -897 -74 -84 -134
-157 -131 -161 2 -4 -8 -18 -23 -31 l-27 -24 25 30 25 30 -27 -24 c-15 -13
-25 -27 -23 -31 7 -11 -86 -94 -260 -233 -174 -139 -206 -167 -199 -178 2 -4
-1 -11 -7 -15 -8 -4 -9 -3 -5 4 4 7 2 12 -4 12 -7 0 -14 -8 -17 -19 -2 -10
-27 -29 -55 -42 -28 -13 -91 -47 -142 -76 -50 -30 -115 -60 -144 -69 -115 -34
-223 36 -300 197 -37 76 -120 326 -111 332 159 111 458 350 715 573 192 165
236 207 258 246 l19 33 -25 -22 c-13 -13 -28 -23 -33 -23 -18 0 170 181 207
201 21 10 42 29 49 40 12 24 3 21 -36 -10 -20 -16 -20 -16 -1 7 11 12 17 24
14 27 -7 8 -88 -39 -88 -51 0 -5 -13 -23 -29 -38 -29 -27 -30 -28 -24 -6 3 13
41 57 84 98 43 41 78 77 77 81 -1 3 2 14 7 24 4 10 5 21 1 24 -8 8 -36 -17
-36 -33 0 -15 -158 -179 -165 -172 -3 3 4 13 15 23 25 22 25 34 3 52 -17 12
-14 17 37 64 30 28 67 57 81 64 37 20 46 47 14 41 -26 -5 -32 3 -15 20 7 7 7
20 2 34 -8 22 -11 20 -80 -45 -40 -37 -72 -63 -72 -57 0 6 4 13 9 16 5 4 28
30 51 59 34 41 35 45 8 17 -18 -19 -47 -44 -63 -54 l-30 -20 33 38 c44 51 40
58 -7 12 -30 -29 -44 -36 -60 -31 -18 5 -20 10 -10 21 6 8 8 14 3 14 -4 0 -38
-31 -74 -69 -63 -66 -176 -154 -487 -377 -293 -209 -437 -304 -448 -293 -12
12 -14 771 -1 809 7 25 7 25 -9 5 -17 -19 -17 -19 -12 16 5 33 3 36 -14 32
-13 -4 -19 0 -19 11 0 10 -4 15 -9 11 -5 -3 -12 -1 -15 4 -4 5 -2 12 4 16 15
9 12 25 -5 25 -19 0 -19 21 -1 65 8 19 11 35 7 35 -5 0 -11 9 -14 21 -3 12
-10 18 -16 14 -6 -3 -11 2 -11 12 -1 16 -2 16 -13 2 -7 -9 -18 -14 -25 -12 -8
3 -10 -1 -5 -12 5 -15 3 -16 -15 -6 -15 8 -22 8 -22 1 0 -18 -26 -11 -48 13
-15 16 -18 27 -12 37 5 8 10 20 10 27 0 15 -58 44 -65 32 -4 -5 -17 -1 -31 7
-13 9 -26 15 -29 13 -4 -5 -38 -175 -54 -274 -17 -111 -35 -332 -33 -423 0
-50 -3 -80 -8 -77 -6 4 -10 -3 -10 -14 0 -12 5 -21 10 -21 6 0 10 -27 10 -60
0 -33 -4 -60 -10 -60 -5 0 -10 -15 -9 -32 1 -31 1 -31 8 -8 11 35 18 -76 10
-155 l-6 -60 -1 58 c-2 45 -5 57 -18 57 -14 0 -15 -13 -10 -97 3 -54 5 -117 5
-141 1 -30 4 -41 13 -36 8 5 9 2 5 -10 -4 -10 -7 -46 -7 -80 l0 -62 -132 -79
c-168 -102 -551 -294 -733 -369 -722 -295 -1206 -313 -1253 -46 -4 25 -5 62
-2 82 4 31 12 41 50 63 25 13 57 30 73 36 15 6 27 14 27 18 0 5 18 16 40 26
22 10 40 22 40 27 0 5 5 6 10 3 6 -3 10 -1 10 5 0 6 5 8 10 5 6 -3 10 -2 10 3
0 5 19 15 43 22 23 7 46 17 51 22 6 4 18 8 27 8 9 0 22 12 28 28 7 15 30 36
54 49 112 59 149 73 172 67 17 -4 25 -2 25 7 0 7 3 9 6 6 4 -3 19 11 34 32 15
21 43 43 61 50 67 26 101 46 121 74 24 34 18 34 -32 1 -22 -15 -43 -24 -46
-22 -6 7 83 73 99 73 18 0 57 28 57 40 0 6 14 19 30 28 22 14 30 15 30 5 0 -7
15 3 33 22 17 19 32 37 32 40 0 3 36 37 80 76 214 189 338 355 338 452 0 26 4
38 9 30 5 -9 8 -6 8 10 0 13 4 20 10 17 5 -3 12 6 16 21 20 77 -36 275 -95
337 -98 102 -169 166 -209 186 -105 53 -261 67 -363 32 -126 -43 -334 -170
-472 -288 -117 -99 -151 -122 -165 -110 -7 5 -15 7 -19 3 -3 -3 -2 -6 4 -6 6
0 9 -9 6 -21 -7 -26 -163 -189 -181 -189 -7 0 -12 -8 -12 -19 0 -10 -8 -25
-17 -32 -16 -13 -17 -12 -4 4 10 12 11 21 4 28 -9 9 -23 -18 -28 -56 0 -5 -6
-9 -13 -8 -7 2 -12 -4 -12 -13 0 -19 -40 -64 -57 -64 -18 0 -62 -62 -55 -78 3
-10 1 -13 -6 -8 -7 4 -15 1 -18 -8 -3 -9 -15 -16 -25 -16 -21 0 -26 -16 -6
-23 6 -3 2 -6 -10 -6 -16 -1 -33 -17 -57 -55 -19 -30 -39 -57 -45 -61 -6 -3
-8 -11 -5 -17 4 -6 2 -8 -4 -4 -6 3 -13 2 -17 -3 -3 -5 -14 -8 -25 -6 -11 2
-22 0 -25 -6 -4 -5 7 -9 24 -9 36 0 43 -17 22 -50 -17 -27 -52 -56 -63 -53 -3
1 -9 -5 -12 -13 -5 -12 -1 -14 15 -9 23 8 26 11 -41 -64 -34 -38 -41 -64 -9
-36 20 19 20 19 11 -6 -19 -49 -54 -119 -63 -125 -5 -3 -9 -13 -9 -22 0 -10
-7 -28 -16 -40 -12 -17 -19 -20 -29 -12 -9 7 -16 6 -26 -7 -8 -9 -9 -14 -2
-10 6 4 14 4 17 -1 6 -9 -181 -91 -477 -208 -106 -42 -194 -79 -197 -81 -13
-13 75 14 178 53 62 24 118 44 125 44 15 -1 -185 -83 -282 -115 -73 -25 -131
-34 -81 -13 34 14 10 21 -26 8 -20 -8 -25 -13 -15 -19 8 -5 -3 -10 -31 -13
-23 -3 -221 -66 -438 -141 -217 -74 -421 -143 -452 -153 -77 -24 -67 -29 17
-9 37 8 69 14 71 12 6 -6 -255 -87 -278 -86 -16 0 -10 5 17 13 45 14 86 35 69
36 -6 0 -71 -18 -145 -39 -73 -22 -135 -39 -137 -37 -1 2 50 52 114 112 64 60
161 161 215 225 54 64 158 171 231 237 232 209 432 426 453 491 3 11 19 24 36
30 16 6 46 29 67 53 20 23 88 91 149 151 62 60 123 126 134 146 12 20 110 126
218 236 218 221 351 365 520 560 62 71 128 139 147 150 19 12 60 50 91 85 129
149 408 441 457 479 31 24 64 41 79 41 14 0 77 -26 138 -57 l113 -58 90 0
c130 0 188 29 350 173 32 28 66 52 75 52 9 0 53 36 98 80 45 44 88 80 94 80 8
0 8 -4 -1 -15 -15 -18 1 -20 18 -3 7 7 12 8 12 3 0 -4 9 0 20 10 11 10 20 23
20 29 -1 6 -9 1 -19 -11 -19 -23 -46 -17 -36 9 4 9 24 28 45 43 21 15 41 33
44 41 3 9 10 12 16 9 5 -3 10 3 10 14 0 12 6 21 13 21 8 0 19 12 25 26 7 14
16 23 21 20 5 -3 11 3 14 14 3 11 10 20 16 20 9 0 8 -6 0 -22 -11 -20 -10 -21
3 -11 8 7 18 10 21 7 18 -18 105 95 91 118 -7 11 31 94 49 105 21 13 85 97 96
126 6 15 17 27 25 27 8 0 18 12 24 28 5 15 21 44 35 65 14 21 24 44 21 51 -3
7 6 21 18 32 12 10 18 12 12 4 -15 -20 -27 -73 -16 -66 16 10 65 86 59 93 -4
3 11 31 32 62 100 146 302 454 345 528 26 45 54 84 62 87 7 3 11 12 8 20 -4
11 3 19 22 27 16 6 23 13 17 16 -19 7 -16 24 3 21 10 -2 19 3 21 10 3 8 -2 10
-14 6 -17 -5 -17 -5 0 9 9 8 17 21 17 29 0 8 4 18 9 23 4 6 22 35 39 66 260
484 285 542 286 679 1 114 -28 177 -122 269 -156 154 -343 249 -437 224z
m-485 -476 c0 -2 -15 -16 -32 -33 l-33 -29 29 33 c28 30 36 37 36 29z m-89
-104 c-12 -23 -61 -69 -61 -58 0 8 60 75 67 75 2 0 -1 -8 -6 -17z m-610 -741
c-11 -16 -28 -35 -38 -43 -9 -8 -2 5 17 29 38 48 52 57 21 14z m619 -1076 c0
-2 -8 -10 -17 -17 -16 -13 -17 -12 -4 4 13 16 21 21 21 13z m-89 -163 c-12
-14 -19 -29 -15 -32 3 -3 14 5 25 19 13 16 17 18 10 5 -6 -11 -23 -34 -38 -50
-16 -17 -24 -25 -20 -18 5 6 6 21 2 32 -5 15 1 28 22 46 36 32 39 31 14 -2z
m-1561 4 c0 -2 -15 -16 -32 -33 l-33 -29 29 33 c28 30 36 37 36 29z m1520 -51
c0 -3 -4 -8 -10 -11 -5 -3 -10 -1 -10 4 0 6 5 11 10 11 6 0 10 -2 10 -4z
m-2581 -1165 c-7 -10 -21 -24 -33 -31 -15 -9 -12 -3 8 19 34 35 41 39 25 12z
m-67 -79 c-9 -15 -42 -54 -72 -86 -112 -119 -128 -136 -124 -136 2 0 -59 -63
-135 -140 -76 -77 -141 -140 -146 -140 -9 0 -5 5 129 144 53 54 96 101 96 104
0 2 50 59 112 126 145 158 176 186 140 128z m3668 -142 c0 -5 -4 -10 -10 -10
-5 0 -10 5 -10 10 0 6 5 10 10 10 6 0 10 -4 10 -10z m-4185 -412 c-19 -24 -54
-61 -77 -83 -39 -37 -40 -38 -13 -5 38 45 118 130 123 130 2 0 -13 -19 -33
-42z m3912 10 c-3 -7 -5 -2 -5 12 0 14 2 19 5 13 2 -7 2 -19 0 -25z m-1355 4
c-10 -10 -27 -22 -38 -26 -12 -4 -8 3 11 18 35 29 54 35 27 8z m28 -16 c0 -2
-6 -9 -13 -15 -10 -8 -14 -7 -14 4 0 8 6 15 14 15 7 0 13 -2 13 -4z m87 -50
c-30 -55 -147 -169 -247 -241 -95 -68 -441 -277 -448 -270 -7 6 83 137 112
162 14 13 26 20 27 15 0 -4 4 3 9 16 6 13 29 32 55 43 28 12 50 30 55 44 11
28 49 57 64 48 6 -3 8 -2 3 2 -8 10 20 45 37 45 6 1 27 15 46 31 l35 31 -33
-17 c-47 -23 -50 -13 -5 17 74 49 113 69 113 59 0 -8 11 -6 30 4 17 9 36 13
42 9 7 -4 8 -3 4 4 -5 8 0 12 12 12 11 0 24 6 30 13 6 7 27 13 46 13 l35 0
-22 -40z m-137 14 c-20 -13 -43 -13 -35 0 3 6 16 10 28 10 18 0 19 -2 7 -10z
m165 -53 c-9 -19 -32 -49 -52 -68 -35 -33 -35 -32 5 15 23 27 45 64 49 85 4
20 9 28 11 19 2 -10 -4 -32 -13 -51z m1161 -95 c-12 -11 -13 4 -7 63 l6 60 3
-59 c2 -32 1 -61 -2 -64z m1268 7 c-16 -17 -38 -35 -49 -41 -11 -5 0 8 25 31
54 48 65 53 24 10z m110 -14 c-31 -41 -64 -63 -64 -43 0 12 82 89 89 83 1 -2
-9 -20 -25 -40z m36 11 c0 -2 -8 -10 -17 -17 -16 -13 -17 -12 -4 4 13 16 21
21 21 13z m-2151 -55 c-12 -22 -40 -57 -62 -78 l-40 -38 27 37 c15 20 25 41
22 47 -5 8 57 71 70 71 3 0 -5 -18 -17 -39z m2178 -26 c-32 -30 -63 -55 -69
-55 -15 0 9 27 65 72 70 55 72 46 4 -17z m957 -157 c-11 -13 -62 -71 -114
-130 -51 -60 -96 -108 -98 -108 -2 0 17 26 44 58 72 85 178 202 183 202 2 0
-4 -10 -15 -22z m-3404 -61 c0 -2 -12 -14 -27 -28 l-28 -24 24 28 c23 25 31
32 31 24z m-1440 -11 c0 -3 -4 -8 -10 -11 -5 -3 -10 -1 -10 4 0 6 5 11 10 11
6 0 10 -2 10 -4z m-102 -211 c-6 -14 -13 -23 -15 -21 -5 5 15 46 22 46 3 0 -1
-11 -7 -25z m2519 -67 c-3 -7 -5 -2 -5 12 0 14 2 19 5 13 2 -7 2 -19 0 -25z
m0 -60 c-3 -8 -6 -5 -6 6 -1 11 2 17 5 13 3 -3 4 -12 1 -19z m2674 -381 c-8
-8 -11 -7 -11 4 0 20 13 34 18 19 3 -7 -1 -17 -7 -23z m-18 -37 c-5 -21 -33
-49 -33 -33 0 9 29 53 35 53 2 0 1 -9 -2 -20z m-3218 -30 c-9 -14 -59 -39
-124 -61 -77 -27 -52 -7 44 35 94 41 88 39 80 26z m-340 -147 c-66 -34 -115
-55 -115 -48 0 7 140 74 155 74 6 0 -12 -12 -40 -26z m-1855 -163 c12 -7 8
-10 -15 -10 -16 0 -58 -9 -92 -19 -35 -11 -63 -15 -63 -10 0 5 11 11 25 15 14
3 25 9 25 13 0 4 14 6 30 3 18 -3 30 0 30 7 0 14 39 14 60 1z m2624 -18 c2 -4
-5 -9 -17 -9 -17 -2 -19 0 -7 7 18 12 18 12 24 2z m-39 -43 c4 -6 13 -8 21 -5
22 8 17 -2 -7 -15 -13 -7 -19 -7 -15 -1 3 6 1 14 -5 18 -6 3 -15 0 -20 -7 -5
-8 -9 -9 -9 -3 0 23 24 32 35 13z m-96 -50 c-21 -21 -109 -63 -116 -55 -3 3
14 15 37 28 24 13 52 29 64 35 32 19 38 15 15 -8z m141 11 c0 -5 -5 -10 -11
-10 -5 0 -7 5 -4 10 3 6 8 10 11 10 2 0 4 -4 4 -10z m-90 -4 c0 -3 -20 -18
-44 -35 -25 -16 -43 -24 -40 -17 3 7 22 22 42 34 40 23 42 24 42 18z m-116
-82 c-10 -7 -24 -17 -29 -22 -6 -5 -15 -7 -21 -5 -5 2 -19 -5 -30 -14 -20 -18
-31 -23 -74 -30 -27 -5 -23 0 27 35 10 7 11 9 3 5 -13 -6 -13 -4 -1 10 7 9 21
17 30 17 14 0 14 -2 1 -10 -22 -14 -5 -12 51 6 28 10 46 21 42 27 -4 6 -1 7 7
2 10 -6 9 -11 -6 -21z m-3081 -33 c-40 -25 -103 -38 -103 -21 0 7 8 9 20 5 12
-4 20 -2 20 5 0 7 8 9 21 5 14 -5 19 -3 15 3 -5 9 9 15 49 21 6 0 -4 -8 -22
-18z m2892 -63 c-3 -8 -12 -15 -19 -15 -8 0 -12 6 -9 14 3 7 9 10 14 7 5 -3 9
0 9 7 0 7 2 10 5 7 3 -3 3 -12 0 -20z m985 -158 c0 -5 -2 -10 -4 -10 -3 0 -8
5 -11 10 -3 6 -1 10 4 10 6 0 11 -4 11 -10z m327 -56 c-3 -3 -12 -4 -19 -1 -8
3 -5 6 6 6 11 1 17 -2 13 -5z m-1887 -29 c0 -2 -10 -9 -22 -15 -22 -11 -22
-10 -4 4 21 17 26 19 26 11z m-327 -104 c-4 -3 -11 -10 -15 -15 -4 -4 -6 1 -5
12 1 12 6 18 15 15 7 -3 10 -9 5 -12z m3544 -67 c-3 -3 -12 -4 -19 -1 -8 3 -5
6 6 6 11 1 17 -2 13 -5z"/>
<path d="M7805 5491 c-3 -5 -2 -12 3 -15 5 -3 9 1 9 9 0 17 -3 19 -12 6z"/>
<path d="M7771 5471 c-10 -7 -10 -10 -1 -16 6 -4 16 -3 22 3 13 13 -4 23 -21
13z"/>
<path d="M20610 9426 c-36 -8 -103 -28 -150 -46 -47 -17 -125 -46 -175 -64
-87 -31 -195 -83 -146 -70 16 4 21 3 17 -5 -4 -6 -12 -11 -18 -11 -18 0 -282
-132 -305 -153 -13 -11 -23 -17 -23 -14 0 10 -74 -29 -89 -47 -7 -8 -18 -13
-25 -10 -8 3 -22 -3 -31 -13 -10 -10 -21 -18 -24 -18 -3 0 -5 -4 -3 -8 1 -5
-2 -6 -7 -3 -13 8 -42 -4 -36 -15 3 -4 -5 -13 -17 -20 -22 -12 -22 -11 -8 6
14 17 14 18 -8 6 -12 -7 -20 -16 -17 -21 6 -10 -51 -43 -63 -36 -4 2 -36 -10
-70 -29 -34 -18 -59 -28 -55 -23 3 6 0 8 -8 6 -8 -3 -13 -11 -12 -17 2 -6 -2
-11 -7 -11 -5 0 -10 5 -10 10 0 6 -4 10 -10 10 -5 0 -10 -7 -10 -15 0 -9 -6
-12 -15 -9 -8 4 -15 1 -15 -5 0 -6 -6 -11 -12 -11 -14 0 -145 -84 -197 -127
-19 -15 -50 -35 -70 -44 -52 -24 -115 -92 -108 -118 5 -22 -19 -43 -63 -54
-14 -4 -48 -21 -76 -40 -27 -18 -55 -32 -62 -29 -7 2 -10 -2 -6 -12 4 -11 1
-16 -10 -16 -9 0 -16 -4 -16 -9 0 -6 -10 -8 -21 -6 -28 6 -65 -14 -114 -61
-22 -21 -44 -37 -49 -36 -5 2 -18 -6 -30 -16 -11 -10 -36 -25 -53 -32 -18 -7
-33 -19 -33 -27 0 -8 -4 -11 -10 -8 -5 3 -64 -35 -130 -84 -66 -50 -128 -91
-138 -91 -9 -1 -30 -7 -47 -15 l-30 -15 31 3 c73 7 -9 -67 -146 -133 -8 -4
-15 -12 -15 -17 0 -16 -45 -56 -97 -86 -49 -28 -80 -59 -37 -37 19 10 17 5
-11 -25 -19 -20 -52 -46 -73 -56 -22 -12 -35 -24 -31 -31 4 -7 3 -8 -5 -4 -13
8 -101 -31 -101 -45 0 -5 19 0 43 12 l42 22 -40 -42 c-22 -24 -50 -47 -62 -52
-13 -4 -23 -13 -23 -19 0 -6 6 -8 13 -5 6 3 -10 -13 -38 -37 -245 -211 -366
-375 -437 -593 -29 -91 -31 -223 -4 -275 82 -157 271 -323 422 -369 236 -74
692 -43 984 66 52 20 131 42 175 50 44 8 208 57 365 108 160 53 331 103 390
114 58 10 177 35 265 54 491 109 920 111 1129 5 59 -30 123 -77 141 -104 8
-13 17 -45 20 -71 7 -66 16 -106 25 -118 4 -5 8 -47 8 -92 0 -67 -3 -83 -15
-83 -11 0 -13 -7 -9 -24 3 -13 2 -26 -3 -28 -5 -2 -11 -23 -15 -48 -5 -41 -5
-42 5 -12 5 17 14 32 19 32 5 0 7 -15 4 -32 -10 -58 -12 -62 -29 -48 -12 10
-15 9 -15 -4 0 -28 -50 -166 -81 -223 -48 -88 -105 -168 -171 -238 -33 -36
-57 -65 -54 -65 4 0 21 8 39 17 18 9 35 17 39 18 3 0 10 4 15 9 5 5 3 6 -4 2
-21 -12 -14 9 10 32 27 25 46 30 27 7 -10 -12 -10 -19 -2 -27 8 -8 14 -4 23
15 6 14 18 28 26 31 17 7 -12 -47 -37 -68 -23 -21 -60 -30 -60 -15 0 8 -24
-11 -54 -40 -30 -30 -52 -59 -50 -66 3 -7 -10 -27 -28 -46 -18 -18 -27 -29
-20 -25 11 7 12 4 2 -13 -6 -12 -16 -18 -22 -15 -6 4 -8 3 -5 -3 4 -6 0 -16
-8 -23 -31 -26 -4 54 28 84 18 16 26 26 20 22 -9 -5 -11 -2 -7 9 4 10 13 14
22 10 9 -3 13 -3 9 1 -4 4 0 18 9 32 8 13 13 26 10 29 -7 7 -86 -63 -109 -97
-80 -117 -246 -295 -232 -250 l7 25 -23 -23 c-20 -18 -21 -24 -10 -31 11 -7 2
-21 -38 -61 -62 -62 -79 -62 -20 -1 22 24 38 45 35 48 -6 6 -99 -79 -203 -185
-35 -34 -60 -55 -56 -45 4 10 -21 -7 -56 -37 -35 -30 -82 -70 -105 -88 -41
-34 -73 -73 -45 -57 33 20 119 88 119 94 0 4 14 18 32 31 l31 23 -29 -36 c-35
-44 -160 -141 -172 -133 -4 2 -21 -6 -38 -20 -16 -14 -23 -23 -16 -19 17 9 15
0 -5 -16 -11 -10 -14 -10 -9 -1 4 6 3 12 -2 12 -15 0 -71 -31 -79 -43 -5 -9
-3 -9 8 0 13 10 16 10 16 0 0 -7 -8 -14 -18 -14 -20 -2 -102 -54 -95 -60 2 -3
17 3 33 12 24 15 24 13 -7 -14 -33 -30 -58 -41 -45 -21 4 7 -3 9 -22 5 -21 -5
-24 -4 -13 4 8 6 10 11 4 11 -6 0 -18 -8 -25 -17 -12 -14 -12 -16 0 -8 11 6
13 4 8 -8 -4 -12 -1 -15 11 -11 14 5 13 3 -2 -10 -11 -9 -25 -16 -32 -16 -7 0
-17 -6 -21 -13 -4 -8 -35 -32 -68 -54 -80 -53 -308 -186 -301 -174 3 5 -1 14
-8 20 -11 9 -16 9 -22 0 -5 -8 -3 -10 7 -5 8 4 5 0 -5 -8 -11 -9 -23 -16 -28
-16 -4 0 -5 -6 -2 -14 3 -8 0 -17 -7 -22 -9 -5 -10 -2 -6 10 6 14 3 17 -10 12
-15 -5 -15 -4 1 9 11 8 24 15 30 15 5 0 7 3 4 6 -7 6 -235 -112 -263 -137 -11
-10 -58 -36 -105 -59 -47 -22 -85 -45 -85 -51 0 -12 -170 -89 -195 -89 -13 0
-13 1 0 11 19 13 -22 3 -65 -17 -25 -12 -26 -13 -5 -8 32 6 -116 -74 -150 -82
-14 -4 -36 -13 -49 -22 -41 -25 -92 -33 -109 -16 -12 13 -18 11 -48 -18 -19
-18 -34 -38 -34 -45 0 -7 -7 -10 -15 -7 -8 4 -15 1 -15 -5 0 -6 -3 -10 -7 -9
-14 3 -63 -21 -63 -31 0 -5 10 -7 23 -4 12 3 19 3 16 -1 -14 -15 -117 -36
-180 -36 -56 0 -67 -3 -71 -18 -4 -15 -23 -21 -94 -31 -158 -21 -171 -22 -149
-11 31 16 -76 3 -280 -35 -186 -34 -304 -51 -295 -42 11 11 829 552 981 649
347 221 715 437 1115 654 222 120 844 432 1087 545 246 114 205 105 -243 -52
-52 -19 -97 -37 -98 -42 -2 -4 -33 -21 -69 -37 -116 -53 -101 -42 127 88 50
29 40 43 -12 16 -18 -9 -28 -11 -22 -5 6 7 67 34 135 61 73 28 125 54 127 63
2 8 24 23 50 32 95 36 257 119 239 123 -9 2 -15 8 -12 13 8 12 55 12 55 -1 0
-13 27 -13 35 0 3 6 -4 14 -17 19 -22 9 -22 10 12 24 19 8 58 22 86 30 l52 15
8 -31 c5 -17 14 -32 19 -33 6 -2 30 14 54 34 43 37 43 38 16 37 -50 0 -37 21
25 40 33 10 60 22 60 28 0 12 -35 6 -138 -25 -110 -33 -100 -12 12 25 48 16
85 31 83 34 -10 10 -387 -97 -412 -118 -6 -4 -17 -4 -25 1 -11 7 -8 11 15 20
126 49 157 59 171 53 8 -3 22 2 32 10 9 9 35 17 57 19 23 2 39 8 38 14 -1 7
19 19 45 29 71 26 183 78 178 82 -9 9 -176 -41 -341 -103 -98 -36 -182 -63
-188 -61 -13 4 139 64 310 122 82 28 114 43 119 57 7 24 -3 35 -18 20 -7 -7
-22 -12 -34 -12 -12 0 -27 -6 -33 -14 -7 -8 -20 -12 -30 -9 -10 3 -36 -7 -57
-21 -22 -13 -61 -30 -89 -37 -27 -6 -59 -17 -70 -24 -11 -7 -36 -16 -55 -20
-19 -4 -131 -45 -247 -91 -117 -46 -233 -87 -259 -91 -29 -4 -55 -15 -70 -30
-25 -25 -54 -31 -54 -10 0 8 -3 7 -10 -3 -5 -8 -19 -15 -32 -15 -14 0 -23 -6
-23 -15 0 -11 -11 -15 -38 -15 -21 0 -41 -5 -45 -10 -11 -16 -64 -51 -89 -59
-16 -5 -23 -2 -28 13 -5 16 -11 18 -35 11 -16 -5 -30 -4 -32 1 -2 4 -10 4 -18
-1 -13 -8 -12 -10 3 -10 9 0 17 -5 17 -10 0 -7 7 -7 21 0 11 6 25 9 32 7 7 -3
-3 -10 -20 -17 -19 -7 -33 -19 -33 -28 0 -15 -2 -15 -10 -2 -8 12 -10 12 -16
-3 -3 -9 -10 -14 -16 -11 -5 3 -22 1 -38 -6 -22 -9 -33 -9 -51 0 -19 11 -21
10 -16 -4 7 -18 -12 -34 -22 -17 -5 8 -13 7 -27 -4 -10 -8 -14 -15 -8 -15 21
0 3 -47 -22 -59 -33 -15 -37 -14 -30 4 3 8 0 15 -7 15 -16 0 -115 -49 -99 -50
6 0 12 -5 12 -11 0 -7 -9 -9 -23 -5 -26 6 -130 -28 -135 -44 -2 -6 -10 -10
-18 -10 -8 0 -60 -23 -116 -50 -59 -29 -111 -49 -122 -46 -26 7 -64 -13 -46
-24 16 -10 -40 -39 -216 -114 -163 -70 -375 -197 -439 -262 -55 -56 -101 -84
-138 -84 -13 0 -44 -14 -68 -32 -24 -18 -85 -53 -136 -79 -51 -26 -116 -64
-145 -83 -29 -20 -63 -36 -77 -36 -13 0 -38 -13 -57 -29 -43 -39 -142 -95
-285 -165 -65 -32 -184 -103 -270 -163 -278 -193 -303 -208 -414 -257 -122
-53 -194 -99 -388 -248 -149 -113 -255 -213 -295 -275 -15 -24 -32 -43 -39
-43 -7 0 -10 -7 -7 -15 4 -9 -1 -18 -11 -21 -13 -5 -14 -9 -4 -15 10 -6 8 -14
-10 -33 -14 -14 -26 -24 -29 -21 -2 2 -11 -3 -20 -11 -12 -13 -13 -19 -2 -39
7 -13 21 -26 31 -28 13 -4 19 -14 19 -35 0 -23 9 -38 41 -63 27 -21 37 -34 28
-39 -7 -5 1 -10 22 -15 50 -9 143 -38 149 -45 3 -3 14 -7 25 -7 55 -3 125 -17
125 -26 0 -6 23 -7 63 -3 34 4 87 10 117 12 30 3 58 10 61 16 4 7 8 6 11 -2 3
-10 8 -10 25 0 12 8 28 10 39 5 25 -11 54 -6 71 11 8 8 25 14 38 14 13 0 27 5
30 10 7 11 -5 9 -88 -11 -22 -6 -44 -6 -53 -1 -13 7 -1 14 51 31 38 11 70 19
73 17 2 -2 12 4 23 15 11 11 31 19 47 17 15 -1 37 2 50 6 13 4 22 3 22 -3 0
-7 8 -7 25 -1 13 5 27 5 30 1 2 -5 -7 -12 -21 -15 -15 -4 -24 -9 -22 -12 3 -2
22 2 44 10 21 8 31 15 22 15 -10 1 -18 6 -18 12 0 6 8 8 19 4 11 -3 22 -1 26
5 3 6 11 7 18 3 7 -4 4 -9 -9 -14 -14 -6 -10 -8 15 -6 23 1 38 9 49 25 10 15
22 22 34 19 10 -3 18 -1 18 4 0 5 11 4 25 -1 26 -10 58 -4 50 10 -9 14 19 27
170 78 108 36 201 59 330 82 215 37 302 59 283 72 -9 7 -4 8 16 5 17 -3 41 3
60 14 53 31 197 66 301 74 58 4 121 15 150 26 28 11 129 33 225 49 781 134
1509 438 2087 871 366 276 668 600 951 1021 266 397 368 703 334 1009 -9 87
-17 115 -51 184 -23 45 -41 91 -41 103 0 11 -22 49 -50 84 -27 35 -69 88 -92
118 -24 30 -47 57 -53 59 -5 2 -39 32 -75 67 -36 34 -96 79 -135 100 -38 21
-76 44 -83 51 -27 27 -311 96 -521 128 -57 8 -107 17 -111 20 -6 4 -147 20
-252 30 -16 1 -33 3 -39 4 -5 0 -7 6 -4 12 7 10 -99 8 -250 -5 -58 -5 -59 -5
-17 5 71 17 39 23 -45 8 -66 -11 -73 -14 -48 -20 41 -9 -1 -11 -46 -2 -28 5
-30 7 -14 15 12 5 2 6 -25 2 -58 -8 -183 -8 -218 0 -19 5 -23 4 -13 -3 10 -6
-2 -11 -43 -16 -31 -4 -60 -5 -63 -1 -4 3 9 6 27 6 18 0 31 3 27 6 -3 4 -28 3
-54 -1 -37 -6 -43 -9 -28 -15 13 -5 0 -8 -38 -8 -32 -1 -63 -5 -70 -9 -7 -4
-23 -6 -37 -5 -23 2 -23 1 -5 -8 16 -8 11 -9 -20 -5 -35 4 -37 3 -15 -6 14 -6
43 -8 65 -6 36 5 38 4 17 -7 -17 -9 -20 -14 -10 -24 9 -9 5 -12 -20 -12 -18 0
-32 -4 -32 -9 0 -4 -12 -7 -27 -4 -24 3 -25 2 -8 -6 11 -5 17 -10 13 -10 -4
-1 -62 -12 -128 -27 -128 -26 -170 -41 -183 -61 -4 -7 -17 -13 -28 -13 -11 0
-17 -5 -14 -10 4 -7 -3 -8 -20 -4 -30 8 -147 -24 -139 -37 6 -11 4 -11 -98
-17 -15 -1 -33 -8 -40 -14 -7 -7 -29 -14 -48 -15 -33 -2 -68 -13 -115 -34 -11
-5 -40 -15 -65 -23 -25 -8 -83 -30 -130 -50 -46 -20 -89 -35 -94 -33 -6 2 10
11 33 21 24 9 41 19 39 22 -3 2 -35 -9 -72 -26 -193 -86 -403 -14 -318 111 56
83 247 264 527 500 362 304 825 653 855 644 9 -3 52 16 98 44 120 72 441 301
507 362 17 15 93 66 170 112 77 46 167 101 199 121 35 21 73 36 90 36 17 0 58
13 92 29 34 16 76 32 95 36 19 4 43 13 54 19 20 13 92 31 108 28 4 -1 22 4 41
12 18 8 39 10 46 6 20 -12 -13 -51 -140 -169 -61 -58 -110 -111 -109 -120 1
-9 0 -18 -1 -21 -9 -21 -5 -70 6 -74 8 -3 14 -12 14 -21 0 -18 -26 -20 -33 -2
-3 6 -6 3 -6 -8 -1 -15 6 -21 25 -23 14 -1 23 2 19 7 -8 14 7 20 30 10 17 -6
17 -8 3 -8 -10 -1 -18 -5 -18 -11 0 -13 6 -13 31 0 16 9 21 7 31 -14 11 -26
34 -26 24 0 -3 8 -2 14 2 15 46 4 67 10 70 19 2 5 11 10 19 10 13 0 13 -3 3
-15 -10 -12 -9 -15 6 -17 34 -2 39 -3 53 -12 10 -7 13 -5 9 5 -4 11 5 14 38
14 44 0 61 -19 29 -31 -11 -5 -10 -10 7 -27 14 -15 22 -18 25 -9 3 6 11 12 19
12 8 0 14 5 14 11 0 5 -5 7 -12 3 -6 -4 -8 -3 -5 3 4 6 23 9 44 7 63 -5 163
26 163 51 0 7 51 53 113 103 124 100 264 239 315 315 89 129 119 252 88 359
-33 115 -175 259 -333 339 -78 40 -87 42 -185 45 -62 2 -129 -2 -168 -10z
m-571 -260 c-10 -9 -69 -36 -69 -32 0 7 52 35 64 36 5 0 7 -2 5 -4z m-530
-322 c-16 -20 -89 -57 -89 -46 0 7 86 61 99 62 2 0 -2 -7 -10 -16z m816 -74
c-3 -5 -12 -10 -18 -10 -7 0 -6 4 3 10 19 12 23 12 15 0z m-949 -9 c-10 -15
-159 -114 -173 -114 -7 0 -13 -3 -13 -7 0 -4 -7 -7 -15 -7 -9 0 -12 3 -8 7 18
16 154 100 162 100 5 0 14 7 21 15 13 16 35 21 26 6z m-313 -206 c-74 -48
-152 -92 -141 -80 21 22 194 132 201 128 5 -3 -22 -24 -60 -48z m-493 -259 c0
-3 -4 -8 -10 -11 -5 -3 -10 -1 -10 4 0 6 5 11 10 11 6 0 10 -2 10 -4z m-190
-146 c0 -5 -9 -14 -20 -20 -14 -7 -20 -7 -20 0 0 5 7 10 16 10 10 0 14 5 10
16 -3 8 -2 12 4 9 6 -3 10 -10 10 -15z m-70 -54 c0 -3 -4 -8 -10 -11 -5 -3
-10 -1 -10 4 0 6 5 11 10 11 6 0 10 -2 10 -4z m-107 -82 c-21 -16 -43 -18 -43
-4 0 5 6 7 14 4 7 -3 16 2 20 11 3 9 11 13 17 10 6 -5 4 -12 -8 -21z m892 -13
c-3 -5 -28 -23 -56 -41 -56 -34 -55 -15 1 25 35 24 66 33 55 16z m-820 -87
c-26 -20 -55 -36 -55 -30 0 5 63 46 70 46 3 -1 -4 -8 -15 -16z m686 -4 c-22
-19 -41 -26 -41 -15 0 5 51 34 60 34 3 0 -6 -9 -19 -19z m-966 -63 c-51 -35
-75 -49 -75 -43 0 7 72 55 85 55 5 1 1 -5 -10 -12z m-125 -208 c-33 -28 -177
-126 -210 -143 -34 -17 69 63 149 116 98 64 111 70 61 27z m-130 -13 c0 -2
-33 -29 -72 -61 l-73 -56 64 60 c56 53 81 71 81 57z m2127 -562 c-3 -3 -12 -4
-19 -1 -8 3 -5 6 6 6 11 1 17 -2 13 -5z m-1517 -304 c-20 -13 -33 -13 -25 0 3
6 14 10 23 10 15 0 15 -2 2 -10z m-90 -29 c-8 -5 -31 -11 -50 -15 l-35 -6 35
14 c41 17 75 21 50 7z m-214 -76 c-11 -8 -25 -15 -30 -15 -6 0 -2 7 8 15 11 8
25 15 30 15 6 0 2 -7 -8 -15z m2881 -597 c-3 -8 -6 -5 -6 6 -1 11 2 17 5 13 3
-3 4 -12 1 -19z m-55 -230 c-7 -7 -12 -8 -12 -2 0 14 12 26 19 19 2 -3 -1 -11
-7 -17z m-62 -186 c0 -4 -13 -23 -28 -42 -16 -19 -34 -45 -41 -57 -11 -22 -41
-32 -41 -14 0 14 41 61 49 56 5 -2 17 11 27 30 17 32 34 46 34 27z m-599 -112
c-13 -11 -33 -20 -45 -19 -16 0 -11 5 19 20 51 23 56 23 26 -1z m120 -27 c-8
-15 -10 -15 -11 -2 0 17 10 32 18 25 2 -3 -1 -13 -7 -23z m-370 -6 c-6 -8 -8
-17 -4 -20 6 -7 4 -8 -55 -13 -18 -1 -57 -13 -85 -27 -29 -13 -68 -30 -87 -37
-88 -31 -102 -38 -116 -58 -19 -27 -44 -29 -37 -4 3 13 59 40 191 94 206 83
209 84 193 65z m59 -91 c0 -11 -19 -15 -25 -6 -3 5 1 10 9 10 9 0 16 -2 16 -4z
m590 -30 c0 -2 -8 -10 -17 -17 -16 -13 -17 -12 -4 4 13 16 21 21 21 13z m50
-26 c-6 -11 -13 -20 -16 -20 -2 0 0 9 6 20 6 11 13 20 16 20 2 0 0 -9 -6 -20z
m-1116 -25 c-4 -8 -7 -15 -9 -15 -2 0 -5 7 -9 15 -3 9 0 15 9 15 9 0 12 -6 9
-15z m-60 -20 c-6 -16 -24 -21 -24 -7 0 11 11 22 21 22 5 0 6 -7 3 -15z m271
-15 c-3 -5 -12 -10 -18 -10 -7 0 -6 4 3 10 19 12 23 12 15 0z m-393 -32 c-24
-11 -46 -17 -49 -14 -7 7 56 35 77 35 8 0 -5 -10 -28 -21z m1209 -1 c-10 -9
-11 -8 -5 6 3 10 9 15 12 12 3 -3 0 -11 -7 -18z m-174 -82 c-11 -23 -27 -34
-27 -18 0 6 30 43 36 43 1 0 -3 -11 -9 -25z m-897 11 c0 -2 -7 -6 -15 -10 -8
-3 -15 -1 -15 4 0 6 7 10 15 10 8 0 15 -2 15 -4z m1000 -17 c-7 -11 -14 -18
-17 -15 -3 3 0 12 7 21 18 21 23 19 10 -6z m-985 -19 c-3 -5 -12 -10 -18 -10
-7 0 -6 4 3 10 19 12 23 12 15 0z m928 -17 c-6 -16 -5 -17 12 -3 17 13 17 11
-2 -15 -12 -16 -33 -41 -47 -54 -14 -13 -23 -28 -20 -33 3 -5 -3 -12 -14 -15
-11 -2 -23 -14 -26 -26 -3 -12 -8 -18 -12 -14 -8 8 -125 -103 -119 -113 3 -4
-5 -16 -18 -26 l-22 -19 19 23 c33 39 0 24 -55 -25 -30 -27 -48 -40 -40 -30
23 29 -3 19 -34 -13 -16 -16 -31 -28 -33 -25 -2 2 -13 -6 -24 -18 -11 -12 -17
-16 -13 -9 10 19 -10 14 -30 -8 -10 -11 -23 -20 -29 -20 -6 0 9 18 34 41 25
22 76 68 114 102 39 34 90 80 115 103 25 22 54 44 64 47 11 4 21 16 24 27 3
11 11 20 19 20 7 0 17 6 21 14 4 8 24 23 43 33 19 11 35 25 35 32 0 7 9 19 19
27 25 18 27 18 19 -3z m-981 -34 c-18 -12 -35 -19 -38 -16 -3 3 7 12 23 21 42
23 53 19 15 -5z m-663 -53 c-2 -2 -28 -16 -58 -30 -59 -30 -62 -17 -3 14 32
16 74 28 61 16z m1461 -41 c-7 -8 -16 -15 -21 -15 -5 0 -1 9 8 20 9 11 19 17
21 15 3 -3 -1 -11 -8 -20z m-1102 -28 c-7 -7 -24 -16 -36 -20 -27 -6 -23 0 10
19 31 16 42 17 26 1z m-528 -17 c-8 -5 -19 -10 -25 -10 -5 0 -3 5 5 10 8 5 20
10 25 10 6 0 3 -5 -5 -10z m-310 -24 c0 -3 -4 -8 -10 -11 -5 -3 -10 -1 -10 4
0 6 5 11 10 11 6 0 10 -2 10 -4z m837 -22 c-19 -20 -151 -71 -169 -66 -15 4 0
13 56 32 42 15 80 30 83 34 3 3 13 6 21 6 9 0 12 -3 9 -6z m897 -43 c3 -4 -29
-39 -72 -77 l-77 -69 69 78 c38 42 70 77 72 77 1 0 5 -4 8 -9z m-1824 -15 c0
-2 -8 -10 -17 -17 -16 -13 -17 -12 -4 4 13 16 21 21 21 13z m320 -26 c0 -12
-40 -34 -48 -26 -3 3 0 6 6 6 6 0 9 7 6 15 -4 10 0 15 15 15 12 0 21 -4 21
-10z m354 -19 c7 -11 -14 -20 -31 -13 -7 2 -10 8 -7 13 7 12 31 12 38 0z
m-434 -31 c0 -5 -7 -10 -16 -10 -8 0 -12 5 -9 10 3 6 10 10 16 10 5 0 9 -4 9
-10z m-200 -50 c-8 -5 -19 -10 -25 -10 -5 0 -3 5 5 10 8 5 20 10 25 10 6 0 3
-5 -5 -10z m-290 -38 c0 -6 -28 -21 -75 -39 -5 -2 8 7 30 21 45 29 45 29 45
18z m1924 -33 c-10 -11 -28 -25 -39 -31 -11 -5 -4 4 15 21 41 36 51 40 24 10z
m-64 -43 c0 -2 -8 -10 -17 -17 -16 -13 -17 -12 -4 4 13 16 21 21 21 13z
m-2040 -31 c0 -8 -4 -15 -10 -15 -5 0 -10 7 -10 15 0 8 5 15 10 15 6 0 10 -7
10 -15z m1870 -39 c0 -2 -8 -10 -17 -17 -16 -13 -17 -12 -4 4 13 16 21 21 21
13z m-80 -60 c0 -2 -8 -10 -17 -17 -16 -13 -17 -12 -4 4 13 16 21 21 21 13z
m-820 -481 c0 -2 -13 -11 -30 -20 -38 -19 -40 -11 -2 9 31 17 32 18 32 11z
m19 -26 c-16 -10 -23 -4 -14 10 3 6 11 8 17 5 6 -4 5 -9 -3 -15z m-220 -93
c-2 -2 -15 -9 -29 -15 -24 -11 -24 -11 -6 3 16 13 49 24 35 12z m-701 -290
c-7 -8 -15 -12 -17 -11 -5 6 10 25 20 25 5 0 4 -6 -3 -14z m-833 -276 c3 -6
-1 -7 -9 -4 -18 7 -21 14 -7 14 6 0 13 -4 16 -10z m-1774 -417 c13 -16 12 -17
-3 -4 -17 13 -22 21 -14 21 2 0 10 -8 17 -17z m666 -219 c-3 -3 -12 -4 -19 -1
-8 3 -5 6 6 6 11 1 17 -2 13 -5z"/>
<path d="M20729 5563 c-13 -16 -12 -17 4 -4 16 13 21 21 13 21 -2 0 -10 -8
-17 -17z"/>
<path d="M20345 5050 c-3 -5 -1 -10 4 -10 6 0 11 5 11 10 0 6 -2 10 -4 10 -3
0 -8 -4 -11 -10z"/>
<path d="M20235 4960 c-3 -5 -2 -10 4 -10 5 0 13 5 16 10 3 6 2 10 -4 10 -5 0
-13 -4 -16 -10z"/>
<path d="M20035 4769 c-11 -17 1 -21 15 -4 8 9 8 15 2 15 -6 0 -14 -5 -17 -11z"/>
<path d="M8155 8910 c-12 -13 -15 -24 -9 -30 6 -6 16 1 27 20 21 34 9 40 -18
10z"/>
<path d="M9336 8529 c-10 -17 -15 -33 -12 -36 3 -3 9 3 12 13 4 10 14 27 22
37 8 9 11 17 6 17 -5 0 -18 -14 -28 -31z"/>
<path d="M18815 8487 c-22 -22 -31 -35 -20 -29 37 21 68 49 64 59 -2 5 -22 -8
-44 -30z"/>
<path d="M25774 8421 c-16 -10 -46 -37 -66 -60 -19 -22 -38 -41 -41 -41 -17 0
-4 29 23 55 40 38 30 45 -15 11 -26 -20 -34 -33 -30 -47 4 -11 2 -19 -5 -19
-8 0 -10 -9 -6 -27 4 -19 3 -23 -3 -14 -6 10 -12 4 -21 -23 -6 -19 -15 -38
-20 -41 -5 -3 -3 13 5 36 18 51 19 48 -5 42 -11 -3 -20 -11 -20 -18 0 -7 -7
-18 -15 -25 -18 -15 -21 -54 -2 -45 6 4 -5 -9 -25 -28 -21 -19 -38 -38 -38
-42 0 -5 -9 -18 -19 -29 -11 -12 -33 -48 -51 -81 -27 -51 -31 -55 -26 -27 3
19 15 47 27 63 12 17 19 32 17 35 -9 8 -49 -45 -82 -108 -42 -82 -76 -129 -89
-121 -6 3 -7 1 -3 -5 9 -15 -21 -73 -37 -69 -7 1 -11 -7 -10 -20 1 -11 -4 -27
-13 -33 -12 -11 -13 -10 -8 6 3 10 -10 -5 -30 -34 -20 -29 -34 -57 -30 -63 7
-12 -25 -51 -37 -43 -7 4 -33 -32 -34 -48 0 -5 -3 -7 -7 -5 -10 3 -121 -163
-115 -170 3 -2 -2 -13 -11 -23 -74 -80 -105 -126 -97 -141 4 -5 1 -8 -6 -7 -6
2 -14 -3 -17 -11 -3 -9 0 -11 8 -6 9 5 11 4 6 -4 -4 -6 -11 -9 -16 -6 -5 3
-11 1 -15 -5 -4 -6 -11 -7 -17 -4 -7 4 -7 0 0 -12 8 -15 1 -32 -30 -82 -22
-34 -44 -60 -48 -57 -5 3 -7 12 -4 20 4 8 10 12 15 9 5 -3 9 0 9 5 0 27 -22 5
-67 -66 -27 -43 -53 -84 -57 -90 -13 -24 5 -13 35 20 l30 32 -18 -32 c-10 -18
-30 -37 -45 -42 -40 -14 -149 -214 -132 -242 2 -4 -1 -11 -7 -15 -8 -5 -9 -3
-4 7 6 11 5 12 -6 1 -7 -7 -14 -23 -14 -37 -2 -39 -37 -108 -47 -93 -6 9 -7 5
-3 -10 4 -15 2 -24 -9 -28 -17 -7 -29 -34 -34 -83 -1 -7 -8 -11 -16 -8 -10 4
-13 1 -10 -7 3 -8 -16 -56 -42 -107 -26 -52 -91 -187 -144 -301 -53 -113 -111
-229 -129 -257 -17 -28 -31 -60 -31 -71 0 -10 -8 -25 -18 -32 -35 -25 -152
-163 -152 -179 0 -9 -16 -39 -35 -65 -20 -27 -45 -68 -56 -91 -11 -24 -23 -43
-28 -43 -14 0 -74 -65 -114 -125 -53 -79 -140 -185 -312 -380 -77 -88 -168
-194 -202 -235 -77 -94 -112 -128 -193 -185 -114 -79 -186 -110 -260 -110 -81
0 -133 25 -175 84 -28 40 -30 48 -29 129 1 75 7 105 47 222 70 205 82 310 52
438 -38 159 -136 259 -277 281 -73 12 -239 -4 -251 -24 -4 -9 -12 -13 -18 -10
-5 4 -24 2 -42 -4 -17 -5 -52 -15 -77 -22 -47 -13 -167 -75 -210 -108 -20 -16
-22 -22 -12 -34 9 -11 10 -17 2 -22 -6 -4 -14 -4 -17 -1 -4 3 -1 6 6 6 7 0 9
5 6 10 -3 6 -13 10 -21 10 -10 0 -13 -7 -8 -25 4 -15 2 -25 -5 -26 -6 -1 -14
-2 -19 -3 -4 0 -25 -20 -46 -43 -21 -24 -45 -43 -52 -43 -8 0 -17 -7 -20 -15
-4 -8 -12 -15 -20 -15 -13 0 -18 -12 -15 -32 0 -5 -4 -7 -11 -5 -7 1 -12 -2
-13 -8 0 -5 -4 -16 -9 -23 -12 -20 1 -27 21 -11 27 22 -8 -30 -85 -126 -90
-111 -90 -111 -72 -100 12 7 12 5 -1 -11 -9 -10 -27 -41 -41 -69 -14 -27 -55
-102 -92 -164 -158 -274 -205 -499 -150 -715 32 -124 111 -240 199 -291 94
-56 240 -54 343 3 81 45 263 174 318 225 29 27 55 48 58 48 21 -3 28 2 13 8
-16 6 -15 9 9 31 15 14 24 19 20 13 -4 -7 -3 -13 2 -13 6 0 12 11 16 24 3 13
21 34 40 47 37 25 61 64 50 81 -4 6 -2 8 4 4 6 -3 14 -1 18 6 5 8 10 6 15 -8
6 -17 8 -16 19 11 7 17 14 37 15 46 1 9 11 26 23 39 12 13 24 32 28 43 5 16
11 13 42 -25 57 -67 93 -97 145 -124 124 -64 306 -81 453 -44 86 22 220 80
271 117 17 13 36 23 41 23 5 0 15 7 22 15 7 8 20 15 30 15 10 0 21 7 24 16 5
13 9 14 20 5 11 -10 17 -8 24 6 6 10 13 17 16 16 15 -7 28 0 75 37 28 22 58
40 66 40 9 0 14 4 11 8 -6 10 48 78 100 125 34 31 43 34 48 21 3 -9 4 -19 2
-23 -2 -3 -9 -67 -15 -141 -24 -287 27 -474 168 -619 58 -60 110 -87 187 -100
33 -5 83 -19 113 -31 76 -30 161 -35 251 -16 41 9 76 20 78 25 2 6 10 7 19 4
11 -4 14 -2 9 5 -5 9 -1 9 18 2 15 -5 28 -5 31 0 3 4 19 11 35 15 17 4 30 13
30 20 0 16 27 26 70 27 32 1 54 18 24 18 -23 0 -11 11 46 43 25 13 74 41 108
61 35 20 68 36 73 36 5 0 9 5 9 10 0 6 9 10 21 10 11 0 17 5 14 10 -5 8 10 15
18 8 2 -3 80 41 126 71 24 15 24 15 19 -7 -4 -12 -2 -22 2 -22 5 0 20 -23 34
-50 57 -114 152 -193 280 -232 91 -28 252 -31 338 -5 118 36 259 114 353 197
49 43 92 77 96 74 4 -2 13 4 20 14 13 16 12 16 -6 2 -15 -11 -14 -7 4 13 29
32 33 33 24 10 -6 -16 -5 -17 12 -3 11 8 26 20 33 25 7 6 27 26 45 45 18 19
57 60 87 90 30 30 59 64 65 75 6 11 19 19 28 17 10 -2 20 5 24 15 4 10 19 28
34 41 15 12 51 54 79 92 29 39 56 70 61 70 5 0 9 6 9 13 0 8 16 36 35 63 19
27 35 52 35 56 0 4 14 30 30 56 31 51 37 67 20 57 -10 -6 21 70 34 82 4 4 11
1 16 -7 8 -12 10 -10 11 10 1 14 1 36 0 48 -1 13 21 69 49 124 44 89 50 108
49 157 -1 33 6 77 17 108 16 46 17 61 7 141 -15 115 -46 177 -132 262 -79 78
-167 131 -276 167 -108 35 -269 37 -360 4 -183 -66 -386 -240 -617 -529 -175
-220 -446 -610 -503 -726 -38 -78 -44 -84 -155 -168 -63 -48 -121 -87 -128
-88 -7 0 -30 -11 -52 -25 -50 -31 -64 -32 -26 -1 38 32 30 55 -9 24 -22 -17
-27 -19 -22 -6 4 12 2 15 -8 12 -8 -3 -13 -11 -12 -17 1 -7 -4 -11 -12 -9 -21
4 -69 -17 -75 -34 -3 -8 -14 -14 -24 -14 -10 0 -31 -14 -47 -30 -22 -23 -35
-30 -53 -25 -13 3 -21 2 -18 -3 3 -5 -18 -19 -47 -31 -28 -12 -53 -18 -55 -12
-4 11 -42 2 -42 -11 0 -11 -95 -4 -130 10 -34 14 -75 60 -89 101 -14 44 -13
89 4 181 8 41 21 127 29 190 14 110 23 149 35 160 28 24 72 130 65 153 -4 13
-2 17 5 13 6 -4 11 0 11 9 0 8 4 23 10 33 5 9 26 64 45 121 19 58 41 112 49
120 8 9 44 94 80 189 135 356 183 449 311 607 107 131 207 266 288 391 37 56
74 107 83 114 8 8 35 43 59 79 59 89 180 255 361 496 169 224 323 445 310 445
-2 0 -21 -22 -41 -50 -20 -27 -42 -50 -48 -50 -6 0 -3 6 8 14 10 7 19 22 20
32 1 10 20 38 43 62 23 24 42 52 42 62 0 11 5 20 10 20 6 0 10 6 10 14 0 22
111 157 123 149 6 -3 7 -1 3 5 -4 8 4 16 21 22 47 17 73 33 68 41 -3 4 3 10
13 13 16 6 52 54 52 72 0 4 -10 -1 -21 -12 -25 -22 -25 -20 19 63 18 35 32 65
32 68 0 3 0 9 0 14 0 5 11 22 23 38 13 15 27 40 30 54 4 14 18 38 33 54 14 16
27 33 28 39 1 6 6 17 11 25 5 10 4 16 -3 19 -9 3 -6 14 8 38 12 18 19 38 15
44 -3 5 -1 10 6 10 8 0 8 4 -1 15 -7 9 -15 13 -17 11 -6 -6 -63 59 -63 72 0 6
-10 14 -21 17 -12 4 -67 53 -123 110 -55 56 -111 107 -123 114 -33 17 -104 13
-139 -8z m-876 -1233 c-65 -98 -194 -276 -211 -293 -5 -5 3 14 18 43 27 50
241 342 251 342 2 0 -23 -42 -58 -92z m731 -125 c-56 -82 -132 -179 -125 -159
7 20 7 20 -15 0 -28 -24 -20 -11 54 93 32 46 63 81 68 77 5 -3 6 2 3 11 -4 9
2 25 12 36 15 17 19 18 26 4 6 -10 -1 -29 -23 -62z m-936 -48 c4 -8 2 -17 -3
-20 -6 -4 -10 3 -10 14 0 25 6 27 13 6z m-2988 -1825 c3 -5 -6 -12 -20 -16
-14 -3 -30 -14 -35 -23 -9 -15 -9 -15 -10 1 0 9 10 24 22 32 26 19 35 20 43 6z
m4755 -105 c17 -10 -11 -99 -39 -128 -17 -15 -39 -47 -50 -71 -27 -54 -129
-178 -141 -171 -6 3 -7 0 -4 -8 3 -8 -5 -25 -18 -39 -13 -13 -20 -19 -15 -14
18 24 5 22 -21 -2 -15 -15 -26 -30 -24 -34 2 -5 -1 -8 -7 -8 -5 0 -19 -17 -32
-37 -12 -21 -39 -54 -59 -74 -20 -21 -40 -44 -43 -53 -4 -9 -13 -13 -22 -10
-10 4 -15 0 -15 -10 0 -9 -6 -16 -12 -16 -7 0 -61 -47 -120 -104 -116 -114
-173 -157 -194 -149 -8 3 -14 -1 -14 -10 0 -9 -9 -18 -19 -22 -30 -9 -48 -35
-32 -45 9 -5 -1 -17 -35 -41 -89 -59 -96 -66 -78 -73 8 -3 13 -2 10 3 -3 4 31
34 74 65 44 31 80 60 80 64 0 3 -5 1 -12 -6 -17 -17 -33 -15 -18 3 7 8 18 15
25 15 7 0 15 7 19 15 3 8 13 15 23 15 15 0 15 -1 -2 -13 -10 -8 -15 -19 -11
-25 4 -6 -18 -27 -51 -50 -32 -22 -75 -56 -96 -76 -38 -35 -54 -46 -42 -26 13
20 -14 9 -29 -12 -9 -12 -16 -19 -16 -14 0 5 -7 3 -15 -4 -11 -9 -15 -9 -15
-1 0 6 6 14 14 17 8 3 14 18 14 35 -1 43 80 170 222 348 69 86 184 235 257
331 185 248 256 328 285 326 13 -1 45 14 73 33 140 98 144 101 172 90 14 -5
29 -12 33 -14z m-2910 -69 c0 -2 -8 -10 -17 -17 -16 -13 -17 -12 -4 4 13 16
21 21 21 13z m-1458 -81 c12 -5 12 -17 3 -73 -7 -37 -17 -78 -24 -90 -7 -13
-10 -28 -8 -35 10 -31 -129 -347 -153 -347 -6 0 -10 -7 -10 -15 0 -8 -3 -15
-8 -15 -4 0 -16 -19 -26 -42 -23 -55 -73 -118 -93 -118 -9 0 -13 -6 -10 -14 7
-18 -16 -38 -40 -34 -12 2 -18 -3 -16 -15 0 -11 -4 -16 -12 -13 -7 2 -29 -7
-48 -22 -69 -54 -132 -106 -144 -121 -7 -8 -13 -11 -13 -5 0 5 -6 2 -13 -7 -7
-9 -27 -24 -45 -33 -18 -9 -36 -24 -39 -32 -5 -15 -70 -47 -84 -42 -12 5 27
142 66 230 102 236 436 697 574 792 22 15 57 34 78 42 44 15 47 16 65 9z
m2051 -247 c-3 -16 -9 -28 -14 -28 -12 0 -11 4 3 35 14 31 18 29 11 -7z m2153
-16 c-8 -16 -22 -35 -32 -43 -10 -8 -5 4 11 29 32 48 42 55 21 14z m-123 -87
c-26 -30 -52 -55 -58 -55 -5 0 15 25 45 55 30 30 56 55 58 55 2 0 -18 -25 -45
-55z m-2039 0 c-4 -8 -11 -15 -16 -15 -6 0 -5 6 2 15 7 8 14 15 16 15 2 0 1
-7 -2 -15z m1926 -118 c0 -2 -17 -19 -37 -38 l-38 -34 34 38 c33 34 41 42 41
34z m634 -92 c-9 -14 -18 -25 -21 -25 -5 0 5 18 20 38 17 22 18 13 1 -13z
m-3183 -58 c-32 -47 -46 -60 -76 -71 -17 -6 -16 -4 5 20 29 31 94 93 98 94 2
0 -10 -19 -27 -43z m-1861 -257 c-28 -30 -50 -39 -50 -21 0 13 62 61 71 55 4
-2 -6 -17 -21 -34z m1640 30 c0 -9 -31 -30 -44 -30 -8 0 27 38 37 39 4 1 7 -3
7 -9z m3196 -28 l-29 -27 23 32 c13 18 26 30 29 28 3 -3 -8 -18 -23 -33z
m-826 -16 c0 -2 -8 -10 -17 -17 -16 -13 -17 -12 -4 4 13 16 21 21 21 13z
m-4115 -66 c-3 -5 -12 -10 -18 -10 -7 0 -6 4 3 10 19 12 23 12 15 0z m-135
-120 c0 -10 -38 -32 -85 -50 -22 -8 -25 -7 -25 11 0 21 41 43 51 28 3 -5 14
-2 25 6 22 17 34 19 34 5z m3530 -94 c0 -2 -8 -10 -17 -17 -16 -13 -17 -12 -4
4 13 16 21 21 21 13z m30 -26 c0 -5 -2 -10 -4 -10 -3 0 -8 5 -11 10 -3 6 -1
10 4 10 6 0 11 -4 11 -10z"/>
<path d="M25637 7113 c-4 -3 -7 -11 -7 -17 0 -6 5 -5 12 2 6 6 9 14 7 17 -3 3
-9 2 -12 -2z"/>
<path d="M25585 7040 c-3 -5 -1 -10 4 -10 6 0 11 5 11 10 0 6 -2 10 -4 10 -3
0 -8 -4 -11 -10z"/>
<path d="M26145 4950 c-10 -11 -16 -22 -13 -25 3 -3 13 6 22 20 20 30 16 32
-9 5z"/>
<path d="M21315 3830 c-3 -6 1 -7 9 -4 18 7 21 14 7 14 -6 0 -13 -4 -16 -10z"/>
<path d="M9190 8290 c-6 -11 -8 -20 -6 -20 3 0 10 9 16 20 6 11 8 20 6 20 -3
0 -10 -9 -16 -20z"/>
<path d="M20725 8220 c-3 -6 1 -7 9 -4 18 7 21 14 7 14 -6 0 -13 -4 -16 -10z"/>
<path d="M9066 8122 c-14 -21 -26 -47 -26 -57 0 -17 2 -16 17 5 10 14 18 29
18 35 0 5 6 20 13 33 20 35 7 26 -22 -16z"/>
<path d="M7447 8043 c-4 -3 -7 -11 -7 -17 0 -6 5 -5 12 2 6 6 9 14 7 17 -3 3
-9 2 -12 -2z"/>
<path d="M7379 7933 c-13 -16 -12 -17 4 -4 9 7 17 15 17 17 0 8 -8 3 -21 -13z"/>
<path d="M7345 7900 c-3 -5 -1 -10 4 -10 6 0 11 5 11 10 0 6 -2 10 -4 10 -3 0
-8 -4 -11 -10z"/>
<path d="M7300 7855 c-20 -24 -6 -28 15 -5 10 11 13 20 8 20 -6 0 -16 -7 -23
-15z"/>
<path d="M25110 7635 c-7 -9 -10 -18 -7 -21 3 -3 10 4 17 15 13 25 8 27 -10 6z"/>
<path d="M8726 7608 l-17 -33 20 24 c18 20 27 41 18 41 -1 0 -11 -15 -21 -32z"/>
<path d="M8629 7498 c-12 -23 -12 -23 10 -4 23 21 26 26 11 26 -5 0 -15 -10
-21 -22z"/>
<path d="M13280 7440 c0 -5 5 -10 10 -10 6 0 10 5 10 10 0 6 -4 10 -10 10 -5
0 -10 -4 -10 -10z"/>
<path d="M17415 7420 c-3 -5 -2 -10 4 -10 5 0 13 5 16 10 3 6 2 10 -4 10 -5 0
-13 -4 -16 -10z"/>
<path d="M13192 7378 c-7 -7 -12 -21 -12 -32 0 -15 -3 -17 -8 -8 -7 9 -13 8
-26 -7 -17 -19 -20 -19 -42 -4 -13 8 -24 11 -24 7 0 -5 -11 -22 -25 -39 l-25
-30 7 34 c8 45 -11 34 -27 -15 -7 -21 -21 -39 -35 -44 -14 -5 -34 -33 -54 -76
-18 -38 -37 -71 -42 -75 -6 -3 -12 -17 -14 -30 -1 -13 -24 -73 -51 -134 -70
-162 -72 -239 -8 -314 42 -49 96 -79 158 -87 91 -13 186 62 423 335 132 152
133 154 117 178 -14 23 -14 26 1 43 9 10 14 23 11 29 -4 6 1 25 10 43 11 22
13 33 5 36 -17 6 -13 48 6 68 16 15 17 15 24 -2 6 -17 8 -16 18 9 6 15 16 27
22 27 7 0 9 3 6 7 -4 3 -28 7 -54 9 -37 2 -53 -2 -70 -19 l-23 -20 0 36 c0 20
5 37 11 37 5 0 7 5 4 11 -13 20 -44 -21 -42 -54 2 -27 -1 -32 -20 -29 -12 2
-25 -2 -29 -9 -4 -8 -3 -9 4 -5 7 4 12 2 12 -4 0 -7 -8 -9 -19 -5 -11 3 -22 1
-26 -5 -9 -15 -25 -12 -25 5 0 9 -6 12 -15 9 -8 -4 -15 -1 -15 5 0 6 -13 11
-30 11 -26 0 -30 -4 -30 -27 l0 -27 -16 22 c-8 12 -12 27 -9 32 3 6 1 10 -5
10 -7 0 -9 8 -5 21 5 16 4 19 -5 14 -9 -5 -10 -1 -6 14 3 11 9 30 12 41 6 23
3 25 -14 8z m-32 -71 c0 -2 -9 -12 -20 -22 -17 -16 -20 -16 -20 -2 0 8 8 18
18 20 9 3 18 5 20 6 1 0 2 -1 2 -2z m368 -42 c-8 -19 -14 -22 -20 -13 -6 10
-10 10 -18 -2 -8 -13 -10 -12 -10 3 0 10 10 22 23 27 34 14 37 12 25 -15z
m-118 -53 c0 -10 -22 -32 -32 -32 -5 0 -3 9 4 20 13 20 28 27 28 12z"/>
<path d="M6876 7373 c-4 -5 -13 -8 -19 -8 -7 0 -13 -10 -13 -23 -1 -21 0 -21
16 -7 9 8 20 13 23 10 4 -3 5 -2 2 2 -3 3 0 12 6 20 12 14 -2 19 -15 6z"/>
<path d="M13357 7373 c-4 -3 -7 -11 -7 -17 0 -6 5 -5 12 2 6 6 9 14 7 17 -3 3
-9 2 -12 -2z"/>
<path d="M12970 7285 c-7 -9 -11 -18 -8 -20 3 -3 11 1 18 10 7 9 11 18 8 20
-3 3 -11 -1 -18 -10z"/>
<path d="M6790 7274 c-14 -4 -44 -54 -36 -61 2 -2 15 12 30 32 15 19 26 34 24
34 -2 -1 -10 -3 -18 -5z"/>
<path d="M8310 7175 c-8 -9 -8 -15 -2 -15 12 0 26 19 19 26 -2 2 -10 -2 -17
-11z"/>
<path d="M12890 7175 c0 -8 2 -15 4 -15 2 0 6 7 10 15 3 8 1 15 -4 15 -6 0
-10 -7 -10 -15z"/>
<path d="M8317 7103 c-4 -3 -7 -11 -7 -17 0 -6 5 -5 12 2 6 6 9 14 7 17 -3 3
-9 2 -12 -2z"/>
<path d="M18988 6993 c7 -3 16 -2 19 1 4 3 -2 6 -13 5 -11 0 -14 -3 -6 -6z"/>
<path d="M18355 6880 c-3 -5 -1 -10 4 -10 6 0 11 5 11 10 0 6 -2 10 -4 10 -3
0 -8 -4 -11 -10z"/>
<path d="M18230 6829 c0 -5 -5 -7 -12 -3 -7 4 -8 3 -4 -4 10 -16 23 -15 30 3
3 8 1 15 -4 15 -6 0 -10 -5 -10 -11z"/>
<path d="M18366 6821 c-12 -5 -16 -10 -9 -14 13 -8 43 2 43 14 0 10 -8 10 -34
0z"/>
<path d="M18142 6799 c-18 -5 -30 -14 -27 -19 4 -6 0 -10 -7 -10 -10 0 -9 -3
2 -11 12 -8 11 -9 -6 -5 -13 4 -27 -1 -39 -14 -10 -11 -21 -17 -25 -15 -4 3
-13 -2 -19 -9 -8 -9 -8 -16 -2 -20 11 -7 61 13 61 25 0 4 14 10 31 14 19 4 29
12 25 20 -5 14 14 25 45 25 10 0 19 7 19 15 0 17 -10 17 -58 4z"/>
<path d="M18075 6780 c-3 -6 1 -7 9 -4 18 7 21 14 7 14 -6 0 -13 -4 -16 -10z"/>
<path d="M17961 6749 c-13 -5 -22 -12 -19 -15 3 -3 21 2 39 10 37 16 19 21
-20 5z"/>
<path d="M18158 6753 c7 -3 16 -2 19 1 4 3 -2 6 -13 5 -11 0 -14 -3 -6 -6z"/>
<path d="M17935 6686 l-30 -13 24 -7 c22 -8 40 4 41 27 0 9 2 9 -35 -7z"/>
<path d="M5914 6298 l-19 -23 23 19 c21 18 27 26 19 26 -2 0 -12 -10 -23 -22z"/>
<path d="M9313 6154 c-15 -16 -16 -24 -4 -24 8 0 24 30 19 35 -2 2 -9 -3 -15
-11z"/>
<path d="M13868 6164 c-4 -4 -22 -7 -40 -6 -18 0 -40 -5 -48 -13 -8 -7 -35
-21 -60 -31 -25 -10 -50 -24 -56 -32 -6 -9 -22 -16 -35 -17 -13 -1 -28 -10
-33 -22 -5 -11 -18 -24 -29 -29 -11 -5 -19 -13 -19 -19 1 -14 -29 -45 -38 -40
-4 3 -10 -2 -14 -10 -3 -8 -12 -15 -21 -15 -8 0 -15 -4 -15 -10 0 -5 -7 -10
-15 -10 -8 0 -29 -18 -46 -40 -19 -24 -39 -38 -46 -35 -18 6 -75 -36 -69 -51
3 -7 -13 -19 -36 -29 -40 -16 -248 -212 -248 -234 0 -5 -9 -16 -19 -23 -11 -8
-21 -20 -23 -28 -2 -8 -11 -21 -21 -28 -9 -7 -15 -18 -12 -23 4 -5 -3 -9 -15
-9 -11 0 -24 -8 -27 -17 -4 -10 -15 -24 -25 -31 -10 -8 -17 -19 -16 -26 2 -6
-7 -24 -20 -40 -13 -17 -22 -23 -23 -15 -1 8 -4 1 -8 -16 -4 -19 -12 -29 -22
-28 -8 2 -23 -11 -32 -27 -20 -33 -13 -40 10 -12 13 15 13 14 0 -8 -8 -14 -19
-25 -25 -25 -6 0 -14 -4 -19 -9 -5 -5 -3 -6 5 -2 6 4 12 3 12 -2 0 -15 -26
-33 -35 -24 -5 4 -5 1 -1 -5 4 -7 -10 -38 -31 -70 -55 -85 -63 -102 -57 -121
5 -13 4 -14 -4 -3 -8 11 -13 7 -26 -18 -9 -17 -21 -31 -26 -31 -6 0 -10 -6
-10 -14 0 -8 -10 -32 -22 -53 -21 -36 -21 -37 -1 -18 11 11 19 22 17 23 -6 8
58 102 66 97 5 -3 19 9 33 26 l25 32 -4 -30 c-2 -16 -21 -59 -42 -94 -85 -139
-139 -276 -167 -421 -22 -114 -30 -342 -16 -456 29 -232 137 -442 267 -518
164 -96 346 -103 604 -24 286 89 518 195 714 328 54 37 107 72 117 78 30 17
59 46 54 54 -2 4 8 18 23 31 l27 24 -24 -27 c-40 -45 -14 -32 65 33 76 63 87
76 57 65 -10 -3 3 13 28 36 88 81 154 135 177 142 12 4 22 13 22 21 0 7 21 32
48 54 47 41 48 56 2 25 -22 -15 68 72 145 139 17 15 25 27 20 27 -6 0 -49 -34
-97 -75 -48 -41 -90 -75 -94 -75 -3 0 -15 -11 -26 -25 -11 -14 -27 -25 -35
-25 -9 0 -21 -7 -27 -14 -6 -8 -24 -18 -41 -22 -24 -5 -12 8 55 59 88 67 242
217 224 217 -6 0 -21 -11 -33 -24 -13 -14 -33 -26 -45 -28 -13 -2 -20 -9 -18
-20 4 -23 -51 -64 -123 -93 -61 -25 -100 -59 -89 -77 4 -6 -1 -6 -13 1 -11 6
-24 7 -28 3 -5 -4 -5 2 -1 13 5 11 12 32 18 46 5 15 36 45 73 70 67 45 82 68
21 29 -50 -30 -45 -19 6 15 44 30 116 95 104 95 -4 0 -26 -13 -49 -28 -23 -16
-49 -32 -57 -37 -8 -4 49 57 128 136 78 79 142 150 142 157 0 17 -17 15 -24
-4 -3 -9 -12 -14 -20 -11 -7 3 -29 -8 -47 -23 -19 -16 -41 -29 -49 -30 -9 0
-3 10 15 25 45 37 14 30 -44 -10 -28 -19 -53 -35 -57 -35 -3 0 -20 -12 -38
-26 -52 -43 -528 -354 -572 -373 -23 -10 -45 -24 -48 -30 -11 -17 -185 -117
-243 -139 -28 -11 -64 -29 -79 -41 -14 -11 -30 -18 -35 -15 -5 3 -16 -2 -25
-10 -8 -9 -26 -16 -40 -16 -13 0 -24 -4 -24 -9 0 -14 -33 -23 -40 -11 -4 7
-17 7 -41 -1 -67 -22 -224 -82 -235 -90 -6 -5 -19 -10 -30 -12 -10 -2 -33 -10
-49 -19 -40 -21 -125 -34 -125 -19 0 6 -4 11 -10 11 -5 0 -7 -7 -3 -16 5 -14
3 -15 -15 -5 -12 7 -22 14 -22 17 0 24 51 91 113 149 41 39 171 160 288 270
486 455 662 652 889 995 128 195 183 319 196 444 16 155 -85 337 -212 380 -27
9 -57 26 -66 39 -15 19 -28 22 -105 25 -48 2 -91 0 -95 -4z m722 -1507 c0 -2
-12 -14 -27 -28 l-28 -24 24 28 c23 25 31 32 31 24z m-120 -86 c0 -5 -21 -26
-47 -47 -48 -38 -35 -13 17 33 29 26 30 26 30 14z m-40 -65 c0 -2 -8 -10 -17
-17 -16 -13 -17 -12 -4 4 13 16 21 21 21 13z m-40 -30 c0 -2 -8 -10 -17 -17
-16 -13 -17 -12 -4 4 13 16 21 21 21 13z m-93 -39 c-3 -8 -20 -24 -39 -37
l-33 -22 30 26 c17 14 26 26 21 26 -5 0 -3 7 4 15 15 18 25 13 17 -8z m60
-124 c-20 -22 -83 -60 -73 -44 7 10 75 59 85 60 2 1 -3 -7 -12 -16z m173 -67
c0 -2 -19 -19 -42 -36 l-43 -32 40 36 c40 36 45 39 45 32z m-1246 -297 c-21
-10 -39 -18 -40 -16 -6 6 13 23 36 34 41 18 44 3 4 -18z m-104 -33 c0 -3 -4
-8 -10 -11 -5 -3 -10 -1 -10 4 0 6 5 11 10 11 6 0 10 -2 10 -4z m920 -50 c0
-2 -8 -10 -17 -17 -16 -13 -17 -12 -4 4 13 16 21 21 21 13z m-40 -30 c0 -2 -8
-10 -17 -17 -16 -13 -17 -12 -4 4 13 16 21 21 21 13z"/>
<path d="M9610 5919 c0 -5 5 -7 10 -4 6 3 10 8 10 11 0 2 -4 4 -10 4 -5 0 -10
-5 -10 -11z"/>
<path d="M20843 5913 c-18 -7 -16 -23 2 -23 8 0 15 7 15 15 0 8 -1 15 -2 14
-2 0 -9 -3 -15 -6z"/>
<path d="M9597 5893 c-12 -12 -7 -22 8 -17 8 4 15 10 15 15 0 11 -14 12 -23 2z"/>
<path d="M20700 5890 c0 -5 5 -10 10 -10 6 0 10 5 10 10 0 6 -4 10 -10 10 -5
0 -10 -4 -10 -10z"/>
<path d="M20768 5893 c-21 -2 -38 -8 -38 -12 0 -5 -11 -11 -24 -13 -17 -4 -23
-1 -19 9 8 21 -15 15 -31 -9 -30 -42 -18 -48 42 -22 20 9 47 17 59 18 13 1 31
9 40 19 10 9 15 16 13 15 -3 -1 -22 -3 -42 -5z"/>
<path d="M30948 5880 c-31 -11 -73 -30 -94 -42 -21 -12 -34 -17 -30 -10 4 7 5
12 3 12 -5 0 -199 -165 -325 -277 -45 -40 -85 -73 -88 -73 -4 0 1 11 10 25 9
13 16 32 16 42 0 12 -10 6 -38 -22 -21 -22 -49 -49 -62 -60 l-25 -20 19 23
c16 19 17 22 3 22 -8 0 -21 -14 -29 -30 -7 -17 -21 -33 -30 -36 -10 -3 -18
-15 -18 -28 0 -33 -37 -77 -57 -69 -11 4 -14 3 -9 -5 8 -14 -51 -95 -64 -87
-4 3 -13 -1 -19 -9 -9 -11 -9 -15 0 -18 9 -3 7 -12 -6 -31 -20 -31 -28 -33
-49 -12 -13 14 -16 13 -26 -5 -8 -15 -8 -25 -1 -34 7 -9 7 -16 -1 -24 -17 -17
-33 -15 -18 3 7 8 9 15 4 15 -15 -1 -70 -81 -109 -160 -21 -41 -46 -87 -57
-102 -13 -18 -17 -35 -13 -49 5 -13 3 -19 -3 -15 -5 3 -16 -14 -24 -39 -13
-37 -13 -45 -2 -45 8 0 11 -6 7 -16 -4 -11 -8 -12 -13 -4 -11 18 -28 -10 -33
-55 -3 -22 -29 -88 -57 -147 -29 -59 -58 -131 -65 -160 -11 -52 -13 -54 -146
-156 -181 -138 -413 -300 -454 -318 -62 -26 -66 -21 -38 49 26 65 40 87 30 50
-3 -13 -4 -23 -2 -23 7 0 44 84 39 91 -13 22 -94 -109 -94 -154 0 -25 -26 -32
-46 -13 -11 12 -14 25 -9 44 4 15 9 35 11 46 6 30 36 59 45 44 14 -22 18 -4
10 35 -9 37 -5 42 27 38 6 -1 12 7 12 19 0 11 -5 20 -11 20 -14 0 17 48 45 71
26 21 29 19 21 -14 -4 -14 -15 -27 -25 -30 -12 -3 -19 -17 -22 -45 -6 -69 6
-83 26 -30 10 26 25 49 33 52 10 4 13 14 9 31 -4 15 -2 25 4 25 14 0 51 84 56
126 3 23 48 74 65 74 6 0 7 4 4 10 -3 5 -1 19 5 30 8 15 8 20 -1 20 -6 0 -13
-9 -16 -20 -3 -11 -9 -20 -14 -20 -5 0 -7 11 -3 24 3 13 1 27 -5 31 -6 3 -8
11 -5 17 4 6 10 5 16 -3 7 -10 8 -5 4 16 -3 17 -3 24 0 18 8 -17 24 -16 24 1
0 8 6 17 13 19 9 4 9 6 -1 6 -10 1 -10 6 2 22 8 12 12 28 9 35 -3 9 2 14 13
15 11 0 14 3 6 6 -6 2 -9 9 -6 14 3 6 8 24 11 41 3 23 1 28 -8 22 -7 -4 -3 6
9 23 12 17 22 38 22 46 0 8 11 39 25 69 36 77 35 167 -3 239 -53 101 -172 167
-317 176 l-80 5 -109 -76 c-60 -41 -121 -78 -135 -81 -15 -3 -35 -19 -45 -35
-9 -17 -20 -30 -24 -30 -4 0 -36 -27 -72 -61 -36 -33 -77 -70 -92 -81 -26 -18
-28 -18 -28 -2 0 16 -1 16 -19 0 -19 -17 -20 -16 -35 36 -36 124 -144 205
-305 228 -75 10 -183 0 -223 -21 -27 -14 -29 -9 -16 37 7 25 8 94 4 199 l-6
160 -50 47 c-28 27 -89 66 -138 90 -48 24 -88 46 -90 51 -2 4 -14 7 -27 7 -12
0 -26 7 -29 16 -3 9 -12 14 -20 11 -7 -3 -29 -2 -48 2 -33 8 -34 7 -36 -22 -3
-37 -10 -49 -24 -41 -7 5 -9 1 -5 -9 3 -10 2 -17 -4 -17 -5 0 -7 -11 -3 -24 6
-24 -32 -158 -65 -231 -10 -22 -22 -55 -26 -73 -6 -29 -11 -33 -31 -29 -17 3
-21 1 -15 -7 11 -14 -2 -96 -18 -105 -6 -4 -15 -29 -21 -57 -6 -27 -13 -60
-16 -74 -3 -14 -7 -40 -9 -58 -1 -18 -8 -38 -14 -46 -6 -7 -8 -15 -5 -19 9 -9
-210 -632 -356 -1011 -57 -149 -80 -245 -80 -336 0 -239 176 -398 399 -360 93
16 96 18 95 90 0 33 3 60 8 60 4 0 8 -4 8 -10 0 -5 4 -10 10 -10 5 0 7 6 4 14
-3 8 0 17 6 21 8 5 9 10 2 14 -11 6 -6 39 12 101 8 24 8 24 -7 5 -16 -20 -16
-20 -10 3 3 12 11 22 18 22 13 0 25 22 25 43 -1 7 -7 1 -15 -13 -21 -37 -18
-16 6 41 12 27 26 49 31 49 5 0 3 -10 -3 -22 -12 -23 -12 -23 9 -5 11 10 37
52 57 93 20 41 39 74 41 74 3 0 2 -4 -1 -10 -3 -5 -2 -10 3 -10 13 0 44 68 37
80 -3 6 1 10 9 10 9 0 16 7 16 15 0 8 6 15 13 15 7 0 23 17 35 39 12 21 29 44
37 51 8 7 13 16 10 20 -2 4 7 18 20 30 26 24 35 56 13 45 -7 -4 -4 1 7 10 11
9 19 22 18 28 -2 7 17 32 42 56 24 23 47 51 50 62 13 40 25 16 25 -51 0 -127
34 -254 91 -336 53 -77 169 -127 261 -113 29 4 66 10 81 12 16 2 33 10 38 18
6 10 9 10 9 2 0 -7 5 -13 10 -13 16 0 60 53 55 67 -2 7 2 10 11 6 9 -3 14 1
14 13 0 16 2 17 10 4 5 -8 10 -10 10 -4 0 5 -6 16 -12 23 -11 11 -10 13 3 8
13 -4 15 -1 12 14 -4 15 -2 18 13 12 16 -6 17 -4 6 9 -10 13 -10 17 2 21 8 3
27 28 43 56 15 28 31 51 36 51 4 0 7 -25 7 -55 0 -71 69 -325 114 -421 42 -90
81 -134 148 -166 127 -62 294 -64 474 -3 142 47 268 114 472 252 l166 112 18
-27 c32 -49 112 -124 168 -156 181 -106 447 -155 780 -143 191 8 285 22 494
78 83 22 188 47 233 55 154 26 360 100 903 323 184 76 376 152 425 171 50 18
167 65 260 105 94 40 180 75 193 79 12 4 22 12 22 18 0 6 -8 7 -17 3 -93 -37
-142 -51 -167 -46 -26 5 -20 10 58 45 48 21 85 41 83 43 -4 4 -93 -28 -169
-61 -22 -9 -38 -12 -38 -6 0 5 4 10 10 10 5 0 96 41 202 91 106 50 207 92 223
93 17 1 44 10 62 19 36 19 47 21 39 8 -21 -33 52 -8 254 87 226 106 293 148
123 77 -48 -21 -103 -39 -120 -42 -18 -3 -33 -9 -33 -14 0 -5 -9 -9 -20 -9
-11 0 -28 -4 -38 -9 -37 -19 -121 -38 -146 -34 -17 4 -34 -1 -46 -12 -11 -10
-23 -15 -28 -11 -10 11 36 46 60 46 21 0 100 37 109 52 3 5 12 9 20 8 27 -4
52 0 45 7 -3 4 6 13 21 19 25 12 22 13 -33 9 -72 -5 -122 -23 -102 -38 9 -6 8
-7 -5 -3 -10 3 -26 6 -34 6 -9 0 3 14 25 30 23 17 42 35 42 41 0 5 14 15 31
21 16 6 28 12 25 15 -6 7 -226 -90 -221 -97 5 -8 -81 -45 -150 -64 -27 -8 -65
-19 -84 -25 -62 -19 -18 5 69 39 47 18 148 61 225 95 77 34 150 65 161 69 22
7 63 46 48 46 -4 0 -57 -23 -116 -51 -59 -28 -112 -49 -118 -47 -5 1 49 30
121 62 130 59 156 80 146 117 -4 16 -1 19 14 14 31 -10 233 94 216 111 -5 6
-174 -61 -700 -278 -472 -193 -768 -308 -1021 -394 -104 -36 -201 -73 -215
-83 -40 -26 -134 -52 -168 -45 -24 5 -36 1 -52 -15 -12 -12 -21 -17 -21 -11 0
6 -9 6 -25 0 -14 -5 -25 -6 -25 -2 0 4 -5 0 -10 -9 -5 -8 -35 -24 -67 -34 -32
-10 -67 -21 -78 -26 -11 -4 -44 -13 -73 -19 -28 -7 -55 -16 -58 -21 -3 -5 -16
-6 -30 -3 -13 4 -31 1 -39 -6 -8 -7 -38 -18 -67 -24 -29 -7 -52 -17 -51 -23 1
-5 -48 -24 -109 -41 -62 -18 -121 -40 -132 -51 -22 -19 -126 -37 -126 -22 0 5
-15 6 -33 1 -19 -4 -79 -5 -134 -2 -75 3 -102 1 -108 -8 -5 -8 -4 -11 2 -7 6
4 13 0 17 -8 4 -12 -4 -15 -42 -17 -78 -3 -137 3 -144 15 -4 8 -10 8 -20 0
-18 -14 -257 27 -320 55 -46 20 -62 46 -35 55 6 2 -6 13 -27 24 -51 26 -29 42
25 17 27 -11 36 -20 27 -25 -9 -6 -8 -13 6 -28 19 -21 19 -21 0 -22 -10 0 3
-9 30 -20 29 -12 57 -17 70 -13 17 6 13 9 -24 18 -25 6 -43 15 -42 20 2 5 -2
13 -10 17 -10 7 -9 9 5 9 10 0 15 4 12 10 -3 5 11 2 32 -6 21 -9 41 -20 44
-25 6 -10 106 -15 115 -7 2 3 -24 11 -58 18 -63 12 -124 37 -115 47 3 2 14 0
25 -6 12 -6 33 -11 49 -11 15 0 50 -7 77 -15 27 -8 73 -15 103 -15 29 0 53 -4
53 -10 0 -16 47 -11 54 5 4 12 -2 15 -29 13 -24 -1 -39 4 -48 16 -7 10 -24 20
-38 21 -13 2 -70 18 -127 37 -99 33 -103 33 -122 16 -10 -10 -24 -18 -31 -18
-8 0 -8 -4 1 -15 15 -18 12 -18 -29 -4 -23 8 -29 14 -21 24 5 6 7 14 5 17 -3
3 11 5 31 4 41 -1 57 18 25 29 -12 3 -21 13 -21 21 0 8 -4 12 -10 9 -5 -3 -10
-1 -10 5 0 12 20 8 80 -17 19 -7 37 -19 41 -25 4 -7 17 -8 35 -3 l29 8 -30 7
c-16 4 -24 8 -17 9 7 0 10 6 7 12 -4 6 1 17 11 24 14 11 15 14 5 15 -8 0 -23
-8 -33 -17 -19 -17 -19 -16 -13 9 l7 26 -39 -13 c-32 -11 -56 -12 -42 -2 218
165 398 329 406 369 4 20 16 33 42 45 51 24 228 198 243 239 8 24 18 34 33 34
14 0 56 41 132 128 201 230 286 342 330 438 58 128 23 276 -95 393 -115 115
-250 155 -374 111z m-724 -585 c-9 -14 -18 -25 -21 -25 -5 0 5 18 20 38 17 22
18 13 1 -13z m-164 -175 c-12 -16 -23 -30 -26 -30 -6 0 19 44 31 52 18 13 17
9 -5 -22z m-56 -71 c5 -4 -3 -17 -18 -30 -15 -13 -25 -28 -22 -35 5 -14 -28
-67 -37 -57 -15 14 -6 51 24 97 16 27 33 44 37 40 4 -5 11 -12 16 -15z m1046
-123 c0 -2 -8 -10 -17 -17 -16 -13 -17 -12 -4 4 13 16 21 21 21 13z m-1140
-45 c0 -5 -7 -11 -15 -15 -15 -5 -20 5 -8 17 9 10 23 9 23 -2z m1090 -4 c0 -2
-10 -12 -22 -23 l-23 -19 19 23 c18 21 26 27 26 19z m-1122 -57 c-16 -24 -31
-15 -18 11 6 11 15 17 20 14 6 -4 5 -14 -2 -25z m3877 0 c-3 -5 -12 -10 -18
-10 -7 0 -6 4 3 10 19 12 23 12 15 0z m-4022 -335 c-3 -9 -8 -14 -10 -11 -3 3
-2 9 2 15 9 16 15 13 8 -4z m-22 -52 c-12 -20 -14 -14 -5 12 4 9 9 14 11 11 3
-2 0 -13 -6 -23z m-585 -139 c-4 -9 -9 -15 -11 -12 -3 3 -3 13 1 22 4 9 9 15
11 12 3 -3 3 -13 -1 -22z m-28 -59 c-6 -14 -13 -23 -15 -21 -5 5 15 46 22 46
3 0 -1 -11 -7 -25z m3642 -95 c-8 -5 -19 -10 -25 -10 -5 0 -3 5 5 10 8 5 20
10 25 10 6 0 3 -5 -5 -10z m-4358 -132 c-15 -15 -16 -31 0 -22 7 4 8 3 4 -5
-4 -6 -12 -9 -17 -6 -5 4 -9 1 -9 -4 0 -6 -5 -11 -10 -11 -6 0 0 15 12 34 13
19 25 33 27 30 3 -2 -1 -10 -7 -16z m1898 -21 c11 -5 9 -6 -4 -4 -11 1 -21 9
-23 17 -3 10 -2 11 4 4 4 -6 15 -14 23 -17z m50 -17 c0 -5 -2 -10 -4 -10 -3 0
-8 5 -11 10 -3 6 -1 10 4 10 6 0 11 -4 11 -10z m150 -20 c0 -5 -4 -10 -10 -10
-5 0 -10 5 -10 10 0 6 5 10 10 10 6 0 10 -4 10 -10z m320 -120 c-8 -5 -22 -9
-30 -9 -10 0 -8 3 5 9 27 12 43 12 25 0z"/>
<path d="M5490 5865 c-8 -9 -8 -15 -2 -15 12 0 26 19 19 26 -2 2 -10 -2 -17
-11z"/>
<path d="M10729 5788 c-49 -51 -89 -96 -89 -100 0 -19 21 -4 70 50 99 108 126
142 115 142 -4 0 -47 -42 -96 -92z"/>
<path d="M11076 5864 c-18 -18 -20 -24 -6 -24 5 0 14 9 20 20 13 24 7 26 -14
4z"/>
<path d="M9576 5838 c3 -4 9 -8 15 -8 5 0 9 4 9 8 0 5 -7 9 -15 9 -8 0 -12 -4
-9 -9z"/>
<path d="M20526 5810 c-53 -21 -80 -40 -55 -40 18 1 123 36 146 49 33 19 -38
12 -91 -9z"/>
<path d="M11017 5792 c-5 -7 -33 -28 -63 -47 -33 -21 -54 -42 -54 -53 0 -10
-11 -33 -25 -52 -14 -19 -25 -35 -25 -37 0 -5 144 114 163 135 10 11 17 31 15
44 -2 16 -6 19 -11 10z"/>
<path d="M20655 5780 c-3 -5 -1 -10 4 -10 6 0 11 5 11 10 0 6 -2 10 -4 10 -3
0 -8 -4 -11 -10z"/>
<path d="M10755 5750 c-10 -11 -13 -20 -7 -20 6 0 16 9 22 20 6 11 9 20 7 20
-2 0 -12 -9 -22 -20z"/>
<path d="M20205 5760 c-3 -5 -1 -10 4 -10 6 0 11 5 11 10 0 6 -2 10 -4 10 -3
0 -8 -4 -11 -10z"/>
<path d="M20238 5763 c7 -3 16 -2 19 1 4 3 -2 6 -13 5 -11 0 -14 -3 -6 -6z"/>
<path d="M30558 5673 c7 -3 16 -2 19 1 4 3 -2 6 -13 5 -11 0 -14 -3 -6 -6z"/>
<path d="M20515 5660 c-3 -6 1 -7 9 -4 18 7 21 14 7 14 -6 0 -13 -4 -16 -10z"/>
<path d="M30515 5650 c-3 -5 -1 -10 4 -10 6 0 11 5 11 10 0 6 -2 10 -4 10 -3
0 -8 -4 -11 -10z"/>
<path d="M10999 5648 c-6 -28 -4 -34 13 -34 20 0 21 27 1 34 -7 2 -13 2 -14 0z"/>
<path d="M20690 5619 c0 -5 5 -7 10 -4 6 3 10 8 10 11 0 2 -4 4 -10 4 -5 0
-10 -5 -10 -11z"/>
<path d="M9152 5600 c0 -14 2 -19 5 -12 2 6 2 18 0 25 -3 6 -5 1 -5 -13z"/>
<path d="M19838 5613 c7 -3 16 -2 19 1 4 3 -2 6 -13 5 -11 0 -14 -3 -6 -6z"/>
<path d="M20620 5601 c0 -6 5 -13 11 -17 8 -4 7 -9 -2 -15 -11 -7 -11 -9 1 -9
8 0 22 5 30 10 9 6 11 10 3 10 -7 0 -10 7 -7 15 4 10 0 15 -15 15 -12 0 -21
-4 -21 -9z"/>
<path d="M30469 5588 c-12 -23 -12 -23 10 -4 23 21 26 26 11 26 -5 0 -15 -10
-21 -22z"/>
<path d="M10804 5576 c-10 -8 -16 -17 -13 -20 3 -3 14 3 24 14 21 23 17 26
-11 6z"/>
<path d="M19738 5578 c-16 -5 -28 -14 -28 -18 0 -5 14 -4 30 1 17 6 30 15 30
20 0 5 -1 9 -2 8 -2 0 -15 -5 -30 -11z"/>
<path d="M19635 5544 c-75 -27 -77 -54 -2 -28 46 16 84 45 56 43 -8 0 -32 -7
-54 -15z"/>
<path d="M20445 5540 c-13 -6 -15 -9 -5 -9 8 0 22 4 30 9 18 12 2 12 -25 0z"/>
<path d="M20635 5530 c-3 -5 1 -10 9 -10 9 0 16 5 16 10 0 6 -4 10 -9 10 -6 0
-13 -4 -16 -10z"/>
<path d="M30360 5530 c0 -5 4 -10 9 -10 6 0 13 5 16 10 3 6 -1 10 -9 10 -9 0
-16 -4 -16 -10z"/>
<path d="M10938 5515 c-3 -6 0 -15 7 -22 10 -10 16 -9 27 4 11 14 11 16 -4 10
-9 -3 -18 -1 -21 6 -2 6 -6 7 -9 2z"/>
<path d="M19513 5497 c-17 -7 -35 -16 -40 -21 -4 -5 -3 -6 4 -2 6 3 14 2 18
-4 7 -11 59 11 70 30 8 13 -11 12 -52 -3z"/>
<path d="M20199 5480 c0 -3 -2 -13 -4 -22 -4 -22 5 -23 31 -2 10 8 13 12 5 8
-7 -3 -17 0 -22 7 -5 8 -9 12 -10 9z"/>
<path d="M19362 5446 c4 -5 3 -15 -3 -23 -9 -10 -8 -13 4 -13 24 0 29 16 9 31
-9 7 -14 9 -10 5z"/>
<path d="M20163 5405 l-28 -25 40 16 c51 20 66 34 38 34 -12 0 -35 -11 -50
-25z"/>
<path d="M19327 5413 c-4 -3 -7 -11 -7 -17 0 -6 5 -5 12 2 6 6 9 14 7 17 -3 3
-9 2 -12 -2z"/>
<path d="M19230 5360 c0 -5 5 -10 10 -10 6 0 10 5 10 10 0 6 -4 10 -10 10 -5
0 -10 -4 -10 -10z"/>
<path d="M19914 5310 c-21 -8 -42 -30 -29 -30 11 0 75 29 75 34 0 8 -21 6 -46
-4z"/>
<path d="M9143 5275 c0 -22 2 -30 4 -17 2 12 2 30 0 40 -3 9 -5 -1 -4 -23z"/>
<path d="M19045 5291 c-6 -11 9 -23 19 -14 9 9 7 23 -3 23 -6 0 -12 -4 -16 -9z"/>
<path d="M18985 5259 c-11 -17 1 -21 15 -4 8 9 8 15 2 15 -6 0 -14 -5 -17 -11z"/>
<path d="M27160 5239 c0 -5 5 -7 10 -4 6 3 10 8 10 11 0 2 -4 4 -10 4 -5 0
-10 -5 -10 -11z"/>
<path d="M9142 5105 c0 -16 2 -22 5 -12 2 9 2 23 0 30 -3 6 -5 -1 -5 -18z"/>
<path d="M18453 5023 c-21 -8 -15 -22 7 -16 11 3 20 9 20 14 0 10 -8 10 -27 2z"/>
<path d="M18365 4970 c-3 -5 -2 -10 4 -10 5 0 13 5 16 10 3 6 2 10 -4 10 -5 0
-13 -4 -16 -10z"/>
<path d="M18228 4913 c-10 -2 -18 -11 -18 -19 0 -11 5 -11 25 -2 14 6 25 15
25 20 0 8 -4 9 -32 1z"/>
<path d="M8010 4869 c0 -5 5 -7 10 -4 6 3 10 8 10 11 0 2 -4 4 -10 4 -5 0 -10
-5 -10 -11z"/>
<path d="M21340 4859 c0 -5 5 -7 10 -4 6 3 10 8 10 11 0 2 -4 4 -10 4 -5 0
-10 -5 -10 -11z"/>
<path d="M33867 4793 c-13 -13 -7 -21 13 -16 11 3 20 9 20 14 0 10 -24 12 -33
2z"/>
<path d="M6516 4731 c-29 -16 -46 -41 -29 -41 12 0 69 47 63 53 -3 2 -18 -3
-34 -12z"/>
<path d="M29336 4735 c-9 -26 -7 -32 5 -12 6 10 9 21 6 23 -2 3 -7 -2 -11 -11z"/>
<path d="M33835 4730 c-13 -6 -15 -9 -5 -9 8 0 22 4 30 9 18 12 2 12 -25 0z"/>
<path d="M33870 4720 c-8 -5 -10 -10 -5 -10 6 0 17 5 25 10 8 5 11 10 5 10 -5
0 -17 -5 -25 -10z"/>
<path d="M12481 4697 c-13 -21 -12 -21 5 -5 10 10 16 20 13 22 -3 3 -11 -5
-18 -17z"/>
<path d="M29347 4703 c-4 -3 -7 -13 -7 -22 1 -13 3 -13 11 2 11 19 8 33 -4 20z"/>
<path d="M29387 4683 c-4 -3 -7 -11 -7 -17 0 -6 5 -5 12 2 6 6 9 14 7 17 -3 3
-9 2 -12 -2z"/>
<path d="M33745 4670 c-22 -11 -29 -17 -15 -14 29 8 80 33 65 33 -5 0 -28 -8
-50 -19z"/>
<path d="M29301 4664 c0 -11 3 -14 6 -6 3 7 2 16 -1 19 -3 4 -6 -2 -5 -13z"/>
<path d="M33903 4670 c-34 -14 -28 -21 7 -9 17 6 30 13 30 15 0 6 -12 4 -37
-6z"/>
<path d="M33780 4640 c-18 -12 -2 -12 25 0 13 6 15 9 5 9 -8 0 -22 -4 -30 -9z"/>
<path d="M14620 4590 c-18 -14 -21 -20 -9 -20 9 0 24 9 34 20 23 26 8 26 -25
0z"/>
<path d="M33665 4530 c-22 -11 -35 -19 -29 -20 15 0 84 29 84 35 0 9 -14 5
-55 -15z"/>
<path d="M14780 4520 c-8 -5 -12 -12 -9 -15 4 -3 12 1 19 10 14 17 11 19 -10
5z"/>
<path d="M29256 4486 c-18 -28 -21 -46 -7 -46 9 0 34 60 27 67 -2 2 -11 -8
-20 -21z"/>
<path d="M26750 4481 c0 -6 4 -13 10 -16 6 -3 7 1 4 9 -7 18 -14 21 -14 7z"/>
<path d="M7458 4463 c7 -3 16 -2 19 1 4 3 -2 6 -13 5 -11 0 -14 -3 -6 -6z"/>
<path d="M29266 4430 c-19 -48 -21 -75 -3 -42 7 12 17 19 21 15 5 -4 6 -1 4 7
-3 8 -1 23 3 32 5 10 5 19 0 22 -5 3 -16 -12 -25 -34z"/>
<path d="M26775 4439 c-4 -6 -5 -12 -2 -15 2 -3 7 2 10 11 7 17 1 20 -8 4z"/>
<path d="M33550 4408 c-14 -5 -36 -12 -50 -14 -14 -3 -29 -9 -34 -14 -15 -15
61 -2 95 15 45 24 38 33 -11 13z"/>
<path d="M33450 4400 c-8 -5 -10 -10 -5 -10 6 0 17 5 25 10 8 5 11 10 5 10 -5
0 -17 -5 -25 -10z"/>
<path d="M33370 4350 c-10 -6 -2 -7 25 -3 49 7 58 13 19 13 -16 0 -36 -5 -44
-10z"/>
<path d="M14670 4340 c0 -5 7 -10 16 -10 8 0 12 5 9 10 -3 6 -10 10 -16 10 -5
0 -9 -4 -9 -10z"/>
<path d="M19290 4329 l-25 -20 33 16 c17 8 32 18 32 20 0 10 -16 4 -40 -16z"/>
<path d="M29210 4304 c0 -8 5 -12 10 -9 6 3 10 10 10 16 0 5 -4 9 -10 9 -5 0
-10 -7 -10 -16z"/>
<path d="M19239 4293 c-1 -5 -1 -12 0 -17 1 -5 -5 -6 -12 -3 -18 7 -130 -66
-120 -78 5 -4 2 -5 -4 -1 -16 9 -56 -17 -45 -29 4 -5 2 -5 -5 -1 -6 3 -28 -3
-47 -15 -38 -22 -47 -33 -19 -22 10 4 14 2 9 -5 -3 -6 24 5 61 24 64 33 77 44
73 60 -2 6 64 54 75 54 3 0 3 -4 0 -10 -10 -16 11 -11 26 6 13 16 21 44 13 44
-2 0 -5 -3 -5 -7z"/>
<path d="M4000 4255 c-11 -13 -10 -14 4 -9 9 3 16 10 16 15 0 13 -6 11 -20 -6z"/>
<path d="M14600 4229 c0 -5 5 -7 10 -4 6 3 10 8 10 11 0 2 -4 4 -10 4 -5 0
-10 -5 -10 -11z"/>
<path d="M19165 4220 c-3 -5 -2 -10 4 -10 5 0 13 5 16 10 3 6 2 10 -4 10 -5 0
-13 -4 -16 -10z"/>
<path d="M29176 4195 c-9 -26 -7 -32 5 -12 6 10 9 21 6 23 -2 3 -7 -2 -11 -11z"/>
<path d="M31860 4163 c-40 -18 -47 -23 -24 -19 44 7 100 31 89 37 -6 3 -35 -5
-65 -18z"/>
<path d="M30377 4109 c4 -13 9 -17 15 -11 11 11 3 32 -12 32 -4 0 -6 -9 -3
-21z"/>
<path d="M24800 4100 c0 -6 7 -10 15 -10 8 0 15 2 15 4 0 2 -7 6 -15 10 -8 3
-15 1 -15 -4z"/>
<path d="M14413 4080 c-33 -20 -41 -30 -24 -30 10 0 70 49 61 50 -3 0 -20 -9
-37 -20z"/>
<path d="M30395 4084 c-18 -14 -18 -14 2 -14 23 0 39 15 26 23 -5 3 -17 -1
-28 -9z"/>
<path d="M30500 4082 c0 -9 44 -32 60 -32 6 0 10 5 10 10 0 6 -9 10 -19 10
-11 0 -23 5 -26 10 -8 12 -25 13 -25 2z"/>
<path d="M31578 4083 c7 -3 16 -2 19 1 4 3 -2 6 -13 5 -11 0 -14 -3 -6 -6z"/>
<path d="M30448 4053 c7 -3 16 -2 19 1 4 3 -2 6 -13 5 -11 0 -14 -3 -6 -6z"/>
<path d="M31398 4053 c7 -3 16 -2 19 1 4 3 -2 6 -13 5 -11 0 -14 -3 -6 -6z"/>
<path d="M24707 4030 c-9 -11 -13 -20 -9 -20 10 1 42 26 42 34 0 12 -16 6 -33
-14z"/>
<path d="M30370 4026 c0 -9 5 -16 10 -16 6 0 10 4 10 9 0 6 -4 13 -10 16 -5 3
-10 -1 -10 -9z"/>
<path d="M30430 4020 c0 -5 5 -10 10 -10 6 0 10 5 10 10 0 6 -4 10 -10 10 -5
0 -10 -4 -10 -10z"/>
<path d="M30460 4001 c0 -11 48 -27 105 -36 l40 -6 -40 22 c-43 24 -105 36
-105 20z"/>
<path d="M30788 4003 c6 -2 18 -2 25 0 6 3 1 5 -13 5 -14 0 -19 -2 -12 -5z"/>
<path d="M31295 3995 c-43 -11 -46 -13 -20 -15 27 -2 26 -3 -10 -10 -22 -4
-62 -11 -88 -15 -27 -3 -46 -9 -43 -12 10 -10 186 19 197 33 6 8 18 14 25 14
8 0 14 5 14 10 0 12 -10 11 -75 -5z"/>
<path d="M31015 3990 c-17 -7 -15 -9 12 -9 17 -1 35 4 38 9 7 12 -22 12 -50 0z"/>
<path d="M31188 3983 c7 -3 16 -2 19 1 4 3 -2 6 -13 5 -11 0 -14 -3 -6 -6z"/>
<path d="M22125 3959 c-4 -6 -5 -12 -2 -15 2 -3 7 2 10 11 7 17 1 20 -8 4z"/>
<path d="M30618 3953 c7 -3 16 -2 19 1 4 3 -2 6 -13 5 -11 0 -14 -3 -6 -6z"/>
<path d="M30653 3930 c3 -12 -1 -24 -11 -30 -12 -7 2 -9 48 -8 46 1 53 3 23 5
-24 2 -44 10 -47 19 -4 11 8 14 66 14 89 0 85 5 -11 14 -70 6 -73 6 -68 -14z"/>
<path d="M31020 3940 c0 -5 6 -10 14 -10 8 0 18 5 21 10 3 6 -3 10 -14 10 -12
0 -21 -4 -21 -10z"/>
<path d="M31080 3946 c0 -2 7 -6 15 -10 8 -3 15 -1 15 4 0 6 -7 10 -15 10 -8
0 -15 -2 -15 -4z"/>
<path d="M30958 3933 c12 -2 30 -2 40 0 9 3 -1 5 -23 4 -22 0 -30 -2 -17 -4z"/>
<path d="M28370 3915 c-7 -9 -11 -17 -9 -20 3 -2 10 5 17 15 14 24 10 26 -8 5z"/>
<path d="M22085 3900 c2 -4 -3 -17 -12 -29 -12 -18 -17 -20 -24 -10 -7 12 -11
11 -19 -1 -5 -8 -10 -20 -10 -27 0 -13 24 -3 66 27 23 17 28 47 8 47 -7 0 -11
-3 -9 -7z"/>
<path d="M30765 3900 c-3 -5 1 -10 10 -10 9 0 13 5 10 10 -3 6 -8 10 -10 10
-2 0 -7 -4 -10 -10z"/>
<path d="M31070 3890 c-13 -8 -12 -10 3 -10 9 0 17 5 17 10 0 12 -1 12 -20 0z"/>
<path d="M6250 3880 c0 -5 5 -10 11 -10 5 0 7 5 4 10 -3 6 -8 10 -11 10 -2 0
-4 -4 -4 -10z"/>
<path d="M30453 3873 c9 -2 23 -2 30 0 6 3 -1 5 -18 5 -16 0 -22 -2 -12 -5z"/>
<path d="M30670 3860 c-13 -8 -12 -10 3 -10 9 0 17 5 17 10 0 12 -1 12 -20 0z"/>
<path d="M30463 3833 c9 -2 25 -2 35 0 9 3 1 5 -18 5 -19 0 -27 -2 -17 -5z"/>
<path d="M30660 3830 c0 -5 4 -10 9 -10 6 0 13 5 16 10 3 6 -1 10 -9 10 -9 0
-16 -4 -16 -10z"/>
<path d="M8935 3820 c-3 -6 1 -7 9 -4 18 7 21 14 7 14 -6 0 -13 -4 -16 -10z"/>
<path d="M18318 3794 c-38 -20 -36 -28 2 -9 17 9 30 18 30 20 0 7 -1 6 -32
-11z"/>
<path d="M18075 3710 c4 -6 11 -8 16 -5 14 9 11 15 -7 15 -8 0 -12 -5 -9 -10z"/>
<path d="M21915 3710 c-3 -5 -1 -10 4 -10 6 0 11 5 11 10 0 6 -2 10 -4 10 -3
0 -8 -4 -11 -10z"/>
<path d="M8640 3670 c-9 -6 -10 -10 -3 -10 6 0 15 5 18 10 8 12 4 12 -15 0z"/>
<path d="M24935 3640 c-3 -5 -2 -10 4 -10 5 0 13 5 16 10 3 6 2 10 -4 10 -5 0
-13 -4 -16 -10z"/>
<path d="M8482 3617 c-12 -7 -19 -17 -15 -22 4 -4 0 -5 -10 -2 -12 5 -16 3
-11 -5 5 -8 2 -9 -9 -5 -10 3 -17 2 -17 -4 0 -6 -6 -7 -12 -3 -10 5 -10 4 -2
-5 10 -10 19 -9 48 4 20 10 33 22 29 28 -4 6 0 8 11 4 9 -4 15 -3 11 2 -3 5 1
12 7 14 7 3 9 6 3 6 -5 0 -20 -5 -33 -12z"/>
<path d="M24865 3595 c-22 -13 -36 -25 -31 -25 10 0 76 39 76 46 0 7 -3 5 -45
-21z"/>
<path d="M17741 3564 c-14 -31 -14 -37 -1 -29 16 10 31 43 21 49 -4 3 -13 -6
-20 -20z"/>
<path d="M24868 3553 c-47 -26 -61 -43 -35 -43 18 1 55 23 57 35 1 6 11 15 23
22 12 7 18 12 12 12 -5 0 -31 -11 -57 -26z"/>
<path d="M24796 3555 c-18 -13 -18 -14 3 -12 11 1 21 7 21 14 0 16 0 16 -24
-2z"/>
<path d="M24710 3539 c0 -5 5 -7 10 -4 6 3 10 8 10 11 0 2 -4 4 -10 4 -5 0
-10 -5 -10 -11z"/>
<path d="M24649 3480 c-94 -47 -165 -100 -133 -100 8 0 36 12 62 26 51 28 67
41 40 31 -53 -20 -44 -13 45 33 53 27 97 52 97 55 0 9 -14 3 -111 -45z"/>
<path d="M5035 3450 c-3 -5 1 -10 9 -10 9 0 16 5 16 10 0 6 -4 10 -9 10 -6 0
-13 -4 -16 -10z"/>
<path d="M11531 3424 c0 -11 3 -14 6 -6 3 7 2 16 -1 19 -3 4 -6 -2 -5 -13z"/>
<path d="M11516 3347 c3 -10 9 -15 12 -12 3 3 0 11 -7 18 -10 9 -11 8 -5 -6z"/>
<path d="M24370 3340 c-13 -9 -13 -10 0 -10 8 0 22 5 30 10 13 9 13 10 0 10
-8 0 -22 -5 -30 -10z"/>
<path d="M24518 3333 c7 -3 16 -2 19 1 4 3 -2 6 -13 5 -11 0 -14 -3 -6 -6z"/>
<path d="M11530 3285 c7 -8 17 -15 22 -15 6 0 5 7 -2 15 -7 8 -17 15 -22 15
-6 0 -5 -7 2 -15z"/>
<path d="M11560 3241 c0 -5 5 -13 10 -16 6 -3 10 -2 10 4 0 5 -4 13 -10 16 -5
3 -10 2 -10 -4z"/>
<path d="M11310 3200 c0 -5 5 -10 11 -10 5 0 7 5 4 10 -3 6 -8 10 -11 10 -2 0
-4 -4 -4 -10z"/>
<path d="M11320 3170 c0 -5 5 -10 11 -10 5 0 7 5 4 10 -3 6 -8 10 -11 10 -2 0
-4 -4 -4 -10z"/>
<path d="M11315 3020 c3 -5 13 -10 21 -10 8 0 12 5 9 10 -3 6 -13 10 -21 10
-8 0 -12 -4 -9 -10z"/>
<path d="M11350 2990 c0 -5 5 -10 10 -10 6 0 10 5 10 10 0 6 -4 10 -10 10 -5
0 -10 -4 -10 -10z"/>
<path d="M16145 2710 c-8 -13 5 -13 25 0 13 8 13 10 -2 10 -9 0 -20 -4 -23
-10z"/>
<path d="M16160 2680 c0 -5 7 -10 15 -10 8 0 15 5 15 10 0 6 -7 10 -15 10 -8
0 -15 -4 -15 -10z"/>
<path d="M3119 2643 c-13 -16 -12 -17 4 -4 16 13 21 21 13 21 -2 0 -10 -8 -17
-17z"/>
<path d="M15548 2643 c7 -3 16 -2 19 1 4 3 -2 6 -13 5 -11 0 -14 -3 -6 -6z"/>
<path d="M15733 2622 c-18 -2 -33 -7 -33 -12 0 -9 59 -5 68 5 9 8 -1 10 -35 7z"/>
<path d="M15878 2613 c7 -3 16 -2 19 1 4 3 -2 6 -13 5 -11 0 -14 -3 -6 -6z"/>
</g>
</svg>
